<?xml version="1.0" encoding="utf-8"?>
<!-- Generator: Adobe Illustrator 25.0.0, SVG Export Plug-In . SVG Version: 6.00 Build 0)  -->
<svg version="1.1" id="图层_1" xmlns="http://www.w3.org/2000/svg" xmlns:xlink="http://www.w3.org/1999/xlink" x="0px" y="0px"
	 viewBox="0 0 2000 2000" style="enable-background:new 0 0 2000 2000;" xml:space="preserve">
<style type="text/css">
	.st0{fill:#F4F4F4;}
	.st1{opacity:0.61;}
	.st2{fill:#D1DBED;}
	.st3{fill:#265446;}
	.st4{fill:#6FC183;}
	.st5{fill:#40947E;}
	.st6{fill:#7A8DB0;}
	.st7{fill:#AAC4E8;}
	.st8{fill:#5681BF;}
	.st9{fill:#3D5891;}
	.st10{fill:#FFFFFF;}
	.st11{fill:#99B1DA;}
	.st12{fill:#1C1C1C;}
	.st13{fill:#F6F6F6;}
	.st14{opacity:0.48;}
	.st15{fill:#B5CAE8;}
	.st16{opacity:0.46;}
	.st17{fill:#243354;}
	.st18{fill:#626262;}
	.st19{fill:#3A5482;}
	.st20{fill:#737373;}
	.st21{fill:#F3CE90;}
	.st22{fill:#F19A6D;}
	.st23{opacity:0.43;}
	.st24{fill-rule:evenodd;clip-rule:evenodd;fill:#FFFFFF;}
	.st25{fill-rule:evenodd;clip-rule:evenodd;fill:#675D82;}
	.st26{fill-rule:evenodd;clip-rule:evenodd;fill:#4C466A;}
	.st27{fill:#B8B8B8;}
	.st28{fill:#524972;}
	.st29{fill:#F5B0A6;}
	.st30{fill:#F18A8B;}
	.st31{fill:#675D82;}
	.st32{fill:#FCD1C8;}
	.st33{fill:#F4C076;}
	.st34{opacity:0.39;}
	.st35{fill:#CE9C5F;}
	.st36{fill:#24447C;}
	.st37{fill:#EF7C59;}
	.st38{fill:#93493A;}
	.st39{fill:#FFEBD7;}
	.st40{fill-rule:evenodd;clip-rule:evenodd;fill:#F68B85;}
	.st41{fill-rule:evenodd;clip-rule:evenodd;fill:#FCD1C8;}
	.st42{fill-rule:evenodd;clip-rule:evenodd;fill:#F8A8A0;}
	.st43{fill-rule:evenodd;clip-rule:evenodd;fill:#12006C;}
	.st44{fill-rule:evenodd;clip-rule:evenodd;fill:#191919;}
	.st45{fill-rule:evenodd;clip-rule:evenodd;fill:#303030;}
	.st46{fill-rule:evenodd;clip-rule:evenodd;fill:#050026;}
	.st47{fill-rule:evenodd;clip-rule:evenodd;fill:#515151;}
	.st48{fill-rule:evenodd;clip-rule:evenodd;fill:#735974;}
	.st49{fill-rule:evenodd;clip-rule:evenodd;fill:#FF808F;}
	.st50{fill:#2E6857;}
	.st51{opacity:0.53;}
	.st52{opacity:0.42;}
	.st53{opacity:0.31;}
	.st54{opacity:0.44;}
</style>
<g>
	<g>
		<g>
			<path class="st0" d="M1339.46,392.58c-460.89-19.38-361.42,285.28-455.72,171C703.26,344.86,381.52,340.4,296.41,581.5
				c-99.88,282.92,224.42,508.83,67.01,552.25c-224.83,62.02-268.3,216.61-98.46,375.81l1409.8,6.14c0,0,135.9-112.01,56.64-232.53
				c-79.26-120.52,10.58-47.08,90.09-257.1C1924.94,752.77,1614.59,404.14,1339.46,392.58z"/>
		</g>
		<g class="st1">
			<path class="st2" d="M1269.36,503.68C948.62,487.66,985.53,799.6,919.9,705.12C794.3,524.29,570.39,520.6,511.16,719.93
				c-69.51,233.91,156.18,420.69,46.64,456.59c-156.47,51.28-186.72,179.1-68.52,310.71l981.12,5.08c0,0,94.58-92.6,39.42-192.25
				c-55.16-99.64,91.61-168.54,146.95-342.19C1728.77,731.91,1460.83,513.24,1269.36,503.68z"/>
		</g>
	</g>
	<g>
		<g>
			<g>
				<g>
					<g>
						<g>
							<path class="st3" d="M1736.51,1318.26c-0.92,0.44-22.84,11.03-47.1,38.77c-14.21,16.25-26.24,35.03-35.75,55.83
								c-11.87,25.96-19.83,55.15-23.65,86.75c-0.14,1.19,0.7,2.27,1.9,2.42c0.09,0.01,0.17,0.01,0.26,0.01
								c1.08,0,2.02-0.81,2.15-1.91c8.52-70.39,36.35-115.02,58.2-140.06c23.68-27.14,45.64-37.79,45.86-37.89
								c1.08-0.52,1.54-1.81,1.03-2.89C1738.89,1318.21,1737.59,1317.75,1736.51,1318.26z"/>
						</g>
					</g>
					<g>
						<g>
							<path class="st4" d="M1816.15,1335.44c-9.63-5.01-19.92-1.57-20.23-4.78c-0.28-2.97,6.14-6.25,17.31-5.26
								c1.72,0.15,3.08-1.48,2.62-3.15c-2.46-8.85-6.61-16.63-12.64-22.38c-1.23-1.17-2.87-1.86-4.57-1.86
								c-7.76-0.01-15.49,2.58-17.22,5.29c-2.37,3.71-7.23-5.74,10.01-10.93c-2.06-0.8-4.24-1.45-6.56-1.9
								c-32.98-6.48-40.84,19.13-40.84,19.13c-18.95-14.6-47.24-10.5-55.62,12.27c15.6-4.3,27.75,0.66,27.5,3.3
								c-0.27,2.86-3.39,2.12-3.39,2.12c-11.69,0.17-20.01,3.59-25,8.48c-1.01,0.98-1.53,2.37-1.46,3.77
								c0.01,0.09,0.01,0.18,0.01,0.28c0.59,9.54,4.68,17.61,10.82,24.39c1.7,1.88,4.33,2.67,6.79,2.04
								c2.48-0.64,4.92-1.84,7.16-3.67c9.99-8.15,23.34-6.98,12.13-1.17c-5.24,2.72-8.07,6.13-9.59,8.99
								c-1.58,2.96-0.45,6.66,2.48,8.28c12.11,6.68,25.85,11.04,37.08,13.55c2.28-10,10.41-16.37,13.6-14.75
								c3.44,1.74,0.24,3.68-0.68,11.06c-0.48,3.89,2.3,5.69,5.05,6.52c1.73,0.21,3.36,0.46,4.9,0.72h0.01l0,0
								c15.45,2.63,22.04,7.29,22.04,7.29c3.73-4.09,7-8.88,9.79-14.13c3.61-6.99,3.97-12.47-6.83-17.86
								c-9.39-4.68,0.75-8.74,11.28-2.97c1.53,0.84,3.45-0.03,3.84-1.73c2.08-8.98,2.97-18.31,2.52-27.25
								C1818.4,1337.58,1817.52,1336.16,1816.15,1335.44z"/>
						</g>
						<g>
							<g>
								<path class="st3" d="M1744.93,1308.44l-1.8,2.35c21.71,16.67,35.04,40.92,42.4,58.32c8,18.92,10.88,34.08,10.9,34.23
									l2.91-0.54c-0.03-0.15-2.95-15.57-11.06-34.77C1780.78,1350.28,1767.17,1325.53,1744.93,1308.44z"/>
							</g>
						</g>
						<g>
							<g>
								<path class="st3" d="M1771.62,1388.86l2.91,0.55c2.84-15.01,9.81-28.45,9.88-28.59l-2.62-1.37
									C1781.49,1360.01,1774.54,1373.4,1771.62,1388.86z"/>
							</g>
						</g>
						<g>
							<g>
								<path class="st3" d="M1735.78,1378.11l2.82,0.9c9.59-29.82,26.87-47.71,27.04-47.88l-2.11-2.07
									C1763.35,1329.25,1745.6,1347.59,1735.78,1378.11z"/>
							</g>
						</g>
						<g>
							<g>
								<path class="st3" d="M1697.82,1351.68l2.22,1.95c24-27.34,50.71-37.12,50.97-37.21l-0.99-2.79
									C1749.75,1313.73,1722.35,1323.72,1697.82,1351.68z"/>
							</g>
						</g>
						<g>
							<g>
								<path class="st3" d="M1697.56,1313.48l1.35,2.64c23-11.75,46.89-3.21,47.13-3.12l0.51-1.39l-0.51,1.39l0.51-1.39l0.51-1.39
									C1746.04,1309.85,1721.74,1301.13,1697.56,1313.48z"/>
							</g>
						</g>
						<g>
							<g>
								<path class="st3" d="M1746.59,1312.14l2.68,1.24c0.07-0.15,7.22-14.98,27.09-19.02l-0.59-2.9
									C1754.38,1295.83,1746.9,1311.48,1746.59,1312.14z"/>
							</g>
						</g>
						<g>
							<g>
								<path class="st3" d="M1755.73,1319.32l1.23,2.69c0.17-0.08,17.21-7.74,42.02-8.63l-0.1-2.95
									C1773.43,1311.34,1756.45,1319,1755.73,1319.32z"/>
							</g>
						</g>
						<g>
							<g>
								<path class="st3" d="M1772.85,1343.29c0.14,0.01,13.72,0.67,35.84,7.6l0.88-2.82c-22.53-7.06-36.03-7.7-36.59-7.73
									L1772.85,1343.29z"/>
							</g>
						</g>
						<g>
							<g>
								<path class="st3" d="M1790.92,1374.75l-2.39,1.75c0.18,0.24,4.52,6.09,13.63,8.23l0.68-2.88
									C1794.85,1379.97,1790.96,1374.8,1790.92,1374.75z"/>
							</g>
						</g>
					</g>
				</g>
				<g>
					<g>
						<g>
							<path class="st3" d="M1714.05,1126.69c-1.12-0.41-2.37,0.16-2.79,1.29c-0.17,0.46-17.15,46.9-37.58,118.03
								c-18.86,65.64-44.6,166.37-60.17,273.42c-0.17,1.19,0.65,2.29,1.84,2.46c0.1,0.01,0.21,0.03,0.32,0.03
								c1.06,0,1.99-0.78,2.15-1.86c15.53-106.79,41.22-207.3,60.03-272.81c20.39-70.99,37.33-117.32,37.5-117.78
								C1715.75,1128.35,1715.18,1127.1,1714.05,1126.69z"/>
						</g>
					</g>
					<g>
						<g>
							<path class="st5" d="M1806.97,1128.28c-10.55-3.04-22.07-2.51-25.47,0.51c-4.65,4.13-7.61-10.62,17.86-10.98
								c-2.5-1.89-5.2-3.62-8.18-5.14c-42.34-21.61-62.97,10.17-62.97,10.17c-20.11-27.21-60.16-32.62-80.4-4.91
								c22.87,0.21,37.48,11.68,36.12,15.16c-1.48,3.78-5.43,1.57-5.43,1.57c-15.97-4.3-28.6-2.88-37.29,1.82
								c-1.75,0.95-3,2.62-3.44,4.56c-0.03,0.13-0.06,0.25-0.08,0.38c-2.9,13.2-0.47,25.76,5.24,37.36
								c1.59,3.22,4.86,5.31,8.45,5.41c3.62,0.1,7.41-0.6,11.17-2.21c16.76-7.2,34.44-0.43,16.96,3.13
								c-8.19,1.66-13.35,5.21-16.54,8.5c-3.29,3.41-3.2,8.88,0.16,12.22c13.87,13.78,30.86,25.04,45.17,32.81
								c6.99-12.71,20.51-18.21,24.22-14.78c4,3.69-1.1,5.1-5.22,14.78c-2.17,5.1,0.92,8.63,4.33,10.83
								c2.26,0.96,4.39,1.93,6.39,2.88h0.01l0,0c19.99,9.57,27.15,18.48,27.15,18.48c6.66-4.11,12.97-9.35,18.79-15.41
								c7.62-8.1,10.24-15.42-2.36-26.95c-10.95-10.01,4.41-11.59,16.49,0.35c1.76,1.74,4.7,1.3,5.9-0.86
								c6.32-11.4,11.14-23.75,14-36.08c0.5-2.13-0.15-4.42-1.74-5.92c-11.15-10.55-26.48-9.87-25.66-14.35
								c0.76-4.14,10.78-6.11,25.58-0.43c2.28,0.88,4.76-0.81,4.78-3.26c0.09-12.99-2.54-25.19-8.5-35.34
								C1811.24,1130.51,1809.28,1128.95,1806.97,1128.28z"/>
						</g>
						<g>
							<g>
								<path class="st3" d="M1729.4,1121.96l-2.38,1.76c23.13,31.22,31.87,69.49,35.13,96.09c3.54,28.9,1.56,50.67,1.53,50.89
									l2.95,0.28c0.02-0.22,2.03-22.25-1.53-51.45C1761.8,1192.55,1752.93,1153.72,1729.4,1121.96z"/>
							</g>
						</g>
						<g>
							<g>
								<path class="st3" d="M1735.51,1241.58l2.64,1.33c9.73-19.41,24.49-35.03,24.63-35.19l-2.14-2.04
									C1760.5,1205.85,1745.44,1221.77,1735.51,1241.58z"/>
							</g>
						</g>
						<g>
							<g>
								<path class="st3" d="M1690.9,1213.12l2.46,1.64c24.71-36.97,55.27-54.63,55.57-54.81l-1.46-2.57
									C1747.16,1157.57,1716.02,1175.55,1690.9,1213.12z"/>
							</g>
						</g>
						<g>
							<g>
								<path class="st3" d="M1649.38,1162.61l1.6,2.49c43.4-27.96,83.65-30.88,84.05-30.91l-0.19-2.95
									C1734.42,1131.26,1693.45,1134.21,1649.38,1162.61z"/>
							</g>
						</g>
						<g>
							<g>
								<path class="st3" d="M1663.64,1110.66l0.57,2.9c36.12-7.11,65.48,13.94,65.77,14.16l1.75-2.39
									c-0.31-0.23-7.74-5.61-19.86-10.15C1700.66,1111,1683.2,1106.81,1663.64,1110.66z"/>
							</g>
						</g>
						<g>
							<g>
								<path class="st3" d="M1731.18,1127.67l2.24,1.93c0.15-0.18,15.81-17.8,44.74-15.56l0.23-2.95
									C1747.89,1108.74,1731.84,1126.9,1731.18,1127.67z"/>
							</g>
						</g>
						<g>
							<g>
								<path class="st3" d="M1740.45,1141.18l0.44,2.93c0.26-0.04,26.51-3.87,60.73,4.58l0.71-2.87
									C1767.51,1137.22,1740.72,1141.14,1740.45,1141.18z"/>
							</g>
						</g>
						<g>
							<g>
								<path class="st3" d="M1754.53,1179.25c0.18,0.06,18.42,6.23,45.93,24.32l1.62-2.47c-27.83-18.3-46.44-24.59-46.62-24.65
									L1754.53,1179.25z"/>
							</g>
						</g>
						<g>
							<g>
								<path class="st3" d="M1766.11,1229.83l-2.78,1.02c0.15,0.4,3.7,9.83,15.06,16.16l1.44-2.59
									C1769.48,1238.65,1766.14,1229.92,1766.11,1229.83z"/>
							</g>
						</g>
					</g>
				</g>
			</g>
		</g>
	</g>
	<g>
		<g>
			<ellipse class="st6" cx="771.93" cy="1490.39" rx="524.34" ry="65.86"/>
		</g>
		<g>
			<ellipse class="st6" cx="1387.1" cy="1499.08" rx="302.74" ry="48.79"/>
		</g>
	</g>
	<g>
		<g>
			<g>
				<path class="st7" d="M1112.3,412.91H429.16c-26.51,0-48,21.49-48,48v981.43c0,26.52,21.49,48.01,48,48.01h683.14
					c26.52,0,48-21.49,48-48.01V460.92C1160.3,434.4,1138.82,412.91,1112.3,412.91z"/>
			</g>
			<g>
				<path class="st8" d="M1126.42,410.67H414.52c-19.5,0-35.3,15.81-35.3,35.3v12.44h782.51v-12.44
					C1161.72,426.47,1145.92,410.67,1126.42,410.67z"/>
			</g>
			<g>
				<g>
					<path class="st9" d="M438.06,425.08c-5.76,0-10.42,4.67-10.42,10.42c0,5.75,4.66,10.42,10.42,10.42
						c5.75,0,10.41-4.67,10.41-10.42C448.47,429.74,443.81,425.08,438.06,425.08z"/>
				</g>
				<g>
					<path class="st10" d="M464.01,425.08c-5.75,0-10.42,4.67-10.42,10.42c0,5.75,4.66,10.42,10.42,10.42
						c5.76,0,10.42-4.67,10.42-10.42C474.43,429.74,469.77,425.08,464.01,425.08z"/>
				</g>
				<g>
					<path class="st11" d="M489.97,425.08c-5.76,0-10.42,4.67-10.42,10.42c0,5.75,4.66,10.42,10.42,10.42
						c5.75,0,10.42-4.67,10.42-10.42C500.39,429.74,495.73,425.08,489.97,425.08z"/>
				</g>
			</g>
		</g>
		<g>
			<rect x="693.29" y="997.69" class="st10" width="425.79" height="299.46"/>
		</g>
		<g>
			<g>
				<g>
					<g>
						<g>
							<polygon class="st8" points="1092.17,1274.49 1086,1274.49 1086,1276.62 1094.3,1276.62 1094.3,1268.32 1092.17,1268.32 
															"/>
						</g>
					</g>
					<g>
						<g>
							<rect x="853.78" y="1274.49" class="st8" width="14.51" height="2.13"/>
							<rect x="824.76" y="1274.49" class="st8" width="14.51" height="2.13"/>
							<rect x="737.68" y="1274.49" class="st8" width="14.51" height="2.13"/>
							<rect x="882.81" y="1274.49" class="st8" width="14.51" height="2.13"/>
							<rect x="766.7" y="1274.49" class="st8" width="14.51" height="2.13"/>
							<rect x="795.73" y="1274.49" class="st8" width="14.51" height="2.13"/>
							<rect x="911.84" y="1274.49" class="st8" width="14.51" height="2.13"/>
							<rect x="998.92" y="1274.49" class="st8" width="14.51" height="2.13"/>
							<rect x="1056.97" y="1274.49" class="st8" width="14.51" height="2.13"/>
							<rect x="1027.94" y="1274.49" class="st8" width="14.51" height="2.13"/>
							<rect x="940.86" y="1274.49" class="st8" width="14.51" height="2.13"/>
							<rect x="969.89" y="1274.49" class="st8" width="14.51" height="2.13"/>
						</g>
					</g>
					<g>
						<g>
							<polygon class="st8" points="717,1268.32 714.86,1268.32 714.86,1276.62 723.17,1276.62 723.17,1274.49 717,1274.49 							
								"/>
						</g>
					</g>
					<g>
						<g>
							<rect x="714.86" y="1212.98" class="st8" width="2.13" height="13.84"/>
							<rect x="714.86" y="1185.32" class="st8" width="2.13" height="13.84"/>
							<rect x="714.86" y="1157.65" class="st8" width="2.13" height="13.84"/>
							<rect x="714.86" y="1240.65" class="st8" width="2.13" height="13.84"/>
							<rect x="714.86" y="1046.99" class="st8" width="2.13" height="13.84"/>
							<rect x="714.86" y="1129.98" class="st8" width="2.13" height="13.84"/>
							<rect x="714.86" y="1074.65" class="st8" width="2.13" height="13.84"/>
							<rect x="714.86" y="1102.32" class="st8" width="2.13" height="13.84"/>
						</g>
					</g>
					<g>
						<g>
							<polygon class="st8" points="714.86,1033.15 717,1033.15 717,1026.98 723.17,1026.98 723.17,1024.85 714.86,1024.85 							
								"/>
						</g>
					</g>
					<g>
						<g>
							<rect x="853.78" y="1024.85" class="st8" width="14.51" height="2.13"/>
							<rect x="824.76" y="1024.85" class="st8" width="14.51" height="2.13"/>
							<rect x="737.68" y="1024.85" class="st8" width="14.51" height="2.13"/>
							<rect x="882.81" y="1024.85" class="st8" width="14.51" height="2.13"/>
							<rect x="795.73" y="1024.85" class="st8" width="14.51" height="2.13"/>
							<rect x="766.71" y="1024.85" class="st8" width="14.51" height="2.13"/>
							<rect x="940.86" y="1024.85" class="st8" width="14.51" height="2.13"/>
							<rect x="1027.94" y="1024.85" class="st8" width="14.51" height="2.13"/>
							<rect x="1056.97" y="1024.85" class="st8" width="14.51" height="2.13"/>
							<rect x="911.84" y="1024.85" class="st8" width="14.51" height="2.13"/>
							<rect x="998.92" y="1024.85" class="st8" width="14.51" height="2.13"/>
							<rect x="969.89" y="1024.85" class="st8" width="14.51" height="2.13"/>
						</g>
					</g>
					<g>
						<g>
							<polygon class="st8" points="1086,1026.98 1092.17,1026.98 1092.17,1033.15 1094.3,1033.15 1094.3,1024.85 1086,1024.85 
															"/>
						</g>
					</g>
					<g>
						<g>
							<rect x="1092.17" y="1185.32" class="st8" width="2.13" height="13.84"/>
							<rect x="1092.17" y="1240.65" class="st8" width="2.13" height="13.84"/>
							<rect x="1092.17" y="1212.98" class="st8" width="2.13" height="13.84"/>
							<rect x="1092.17" y="1157.65" class="st8" width="2.13" height="13.84"/>
							<rect x="1092.17" y="1074.65" class="st8" width="2.13" height="13.84"/>
							<rect x="1092.17" y="1046.99" class="st8" width="2.13" height="13.84"/>
							<rect x="1092.17" y="1129.98" class="st8" width="2.13" height="13.84"/>
							<rect x="1092.17" y="1102.32" class="st8" width="2.13" height="13.84"/>
						</g>
					</g>
				</g>
				<g>
					<g>
						<g>
							<g>
								<rect x="711.22" y="1019.95" class="st8" width="17.65" height="17.65"/>
							</g>
							<g>
								<path class="st8" d="M708.81,1040.02h22.47v-22.47h-22.47V1040.02z M713.63,1022.37h12.82v12.82h-12.82V1022.37z"/>
							</g>
						</g>
						<g>
							<rect x="1083.5" y="1019.95" class="st10" width="17.65" height="17.65"/>
							<path class="st12" d="M1081.09,1040.02h22.47v-22.47h-22.47V1040.02z M1085.91,1022.37h12.82v12.82h-12.82V1022.37z"/>
						</g>
					</g>
					<g>
						<g>
							<g>
								<rect x="711.22" y="1261.46" class="st8" width="17.65" height="17.65"/>
							</g>
							<g>
								<path class="st8" d="M708.81,1281.52h22.47v-22.47h-22.47V1281.52z M713.63,1263.87h12.82v12.82h-12.82V1263.87z"/>
							</g>
						</g>
						<g>
							<g>
								<rect x="1083.5" y="1261.46" class="st8" width="17.65" height="17.65"/>
							</g>
							<g>
								<path class="st8" d="M1081.09,1281.52h22.47v-22.47h-22.47V1281.52z M1085.91,1263.87h12.82v12.82h-12.82V1263.87z"/>
							</g>
						</g>
					</g>
				</g>
			</g>
		</g>
		<g>
			<g>
				<path class="st13" d="M1107.33,1322.52H711.45c-3.5,0-6.34,2.84-6.34,6.34c0,3.5,2.84,6.34,6.34,6.34h395.88
					c3.5,0,6.34-2.84,6.34-6.34C1113.67,1325.36,1110.83,1322.52,1107.33,1322.52z"/>
			</g>
			<g>
				<path class="st13" d="M991.77,1353.86H711.45c-3.5,0-6.34,2.84-6.34,6.34c0,3.5,2.84,6.34,6.34,6.34h280.32
					c3.5,0,6.34-2.84,6.34-6.34C998.11,1356.7,995.27,1353.86,991.77,1353.86z"/>
			</g>
		</g>
		<g>
			<g>
				<g>
					<path class="st10" d="M1126.95,428.03h-2.64l-2.43,4.17c-0.66,1.13-1.11,1.95-1.61,3.01h-0.08c-0.48-0.95-0.98-1.85-1.64-3.01
						l-2.35-4.17h-2.67l5.23,8.79l-5.44,9.01h2.64l2.14-3.91c0.92-1.56,1.42-2.51,1.93-3.54h0.05c0.55,1.03,1.13,2,2.06,3.51
						l2.27,3.93h2.67l-5.54-9.14L1126.95,428.03z"/>
				</g>
			</g>
			<g>
				<path class="st10" d="M1107.09,450.02h25.45v-25.85h-25.45V450.02z M1109.06,426.14h21.51v21.9h-21.51V426.14z"/>
			</g>
		</g>
		<g>
			<g>
				<path class="st10" d="M1073.97,450.02h25.45v-25.85h-25.45V450.02z M1075.93,426.14h21.51v21.9h-21.51V426.14z"/>
			</g>
		</g>
		<g>
			<g>
				<g>
					
						<rect x="437.18" y="995.86" transform="matrix(1 -4.371334e-03 4.371334e-03 1 -5.016 2.3856)" class="st10" width="212.09" height="305.58"/>
				</g>
				<g>
					
						<rect x="524.19" y="995.06" transform="matrix(1 -4.459506e-03 4.459506e-03 1 -4.436 2.378)" class="st9" width="13.66" height="1.71"/>
					
						<rect x="437.86" y="1301.03" transform="matrix(1 -4.431101e-03 4.431101e-03 1 -5.7644 1.9832)" class="st9" width="13.66" height="1.71"/>
					
						<rect x="436.93" y="1277.52" transform="matrix(1 -4.431101e-03 4.431101e-03 1 -5.6868 1.9525)" class="st9" width="1.71" height="13.66"/>
					
						<rect x="436.8" y="1250.2" transform="matrix(1 -4.459506e-03 4.459506e-03 1 -5.6014 1.9642)" class="st9" width="1.71" height="13.66"/>
					
						<rect x="492.5" y="1300.79" transform="matrix(1 -4.431101e-03 4.431101e-03 1 -5.7628 2.2254)" class="st9" width="13.66" height="1.71"/>
					
						<rect x="519.82" y="1300.66" transform="matrix(1 -4.459506e-03 4.459506e-03 1 -5.7989 2.3616)" class="st9" width="13.66" height="1.71"/>
					
						<rect x="496.87" y="995.18" transform="matrix(1 -4.431101e-03 4.431101e-03 1 -4.4086 2.2417)" class="st9" width="13.66" height="1.71"/>
					
						<rect x="465.18" y="1300.9" transform="matrix(1 -4.431101e-03 4.431101e-03 1 -5.7636 2.1043)" class="st9" width="13.66" height="1.71"/>
					
						<rect x="469.54" y="995.3" transform="matrix(1 -4.431101e-03 4.431101e-03 1 -4.4094 2.1206)" class="st9" width="13.66" height="1.71"/>
					
						<rect x="442.22" y="995.42" transform="matrix(1 -4.431101e-03 4.431101e-03 1 -4.4102 1.9996)" class="st9" width="13.66" height="1.71"/>
					
						<rect x="435.97" y="1058.93" transform="matrix(1 -4.431101e-03 4.431101e-03 1 -4.7182 1.9461)" class="st9" width="1.71" height="13.66"/>
					
						<rect x="435.85" y="1031.61" transform="matrix(1 -4.431101e-03 4.431101e-03 1 -4.5972 1.9453)" class="st9" width="1.71" height="13.66"/>
					
						<rect x="436.09" y="1086.26" transform="matrix(1 -4.431101e-03 4.431101e-03 1 -4.8393 1.9469)" class="st9" width="1.71" height="13.66"/>
					
						<rect x="435.73" y="1004.29" transform="matrix(1 -4.459506e-03 4.459506e-03 1 -4.5048 1.957)" class="st9" width="1.71" height="13.66"/>
					
						<rect x="436.33" y="1140.91" transform="matrix(1 -4.459506e-03 4.459506e-03 1 -5.114 1.961)" class="st9" width="1.71" height="13.66"/>
					
						<rect x="436.21" y="1113.58" transform="matrix(1 -4.431101e-03 4.431101e-03 1 -4.9604 1.9477)" class="st9" width="1.71" height="13.66"/>
					
						<rect x="436.57" y="1195.55" transform="matrix(1 -4.431101e-03 4.431101e-03 1 -5.3236 1.9501)" class="st9" width="1.71" height="13.66"/>
					
						<rect x="436.45" y="1168.23" transform="matrix(1 -4.431101e-03 4.431101e-03 1 -5.2025 1.9493)" class="st9" width="1.71" height="13.66"/>
					
						<rect x="436.69" y="1222.87" transform="matrix(1 -4.431101e-03 4.431101e-03 1 -5.4447 1.9509)" class="st9" width="1.71" height="13.66"/>
					
						<rect x="606.15" y="994.7" transform="matrix(1 -4.430977e-03 4.430977e-03 1 -4.4053 2.7259)" class="st9" width="13.66" height="1.71"/>
					
						<rect x="648.31" y="1116.89" transform="matrix(1 -4.431101e-03 4.431101e-03 1 -4.9729 2.8876)" class="st9" width="1.71" height="13.66"/>
					
						<rect x="648.43" y="1144.21" transform="matrix(1 -4.431101e-03 4.431101e-03 1 -5.094 2.8884)" class="st9" width="1.71" height="13.66"/>
					
						<rect x="648.2" y="1089.56" transform="matrix(1 -4.431101e-03 4.431101e-03 1 -4.8519 2.8868)" class="st9" width="1.71" height="13.66"/>
					
						<rect x="648.55" y="1171.53" transform="matrix(1 -4.459506e-03 4.459506e-03 1 -5.2485 2.9077)" class="st9" width="1.71" height="13.66"/>
					
						<rect x="648.79" y="1226.18" transform="matrix(1 -4.431101e-03 4.431101e-03 1 -5.4572 2.8907)" class="st9" width="1.71" height="13.66"/>
					
						<rect x="649.03" y="1280.82" transform="matrix(1 -4.367179e-03 4.367179e-03 1 -5.6172 2.8504)" class="st9" width="1.71" height="13.66"/>
					
						<rect x="648.91" y="1253.5" transform="matrix(1 -4.431101e-03 4.431101e-03 1 -5.5783 2.8916)" class="st9" width="1.71" height="13.66"/>
					
						<rect x="648.67" y="1198.85" transform="matrix(1 -4.431101e-03 4.431101e-03 1 -5.3361 2.89)" class="st9" width="1.71" height="13.66"/>
					
						<rect x="648.07" y="1062.24" transform="matrix(1 -4.459506e-03 4.459506e-03 1 -4.7611 2.9045)" class="st9" width="1.71" height="13.66"/>
					
						<rect x="647.96" y="1034.92" transform="matrix(1 -4.431101e-03 4.431101e-03 1 -4.6097 2.8852)" class="st9" width="1.71" height="13.66"/>
					
						<rect x="578.83" y="994.82" transform="matrix(1 -4.431101e-03 4.431101e-03 1 -4.4062 2.6049)" class="st9" width="13.66" height="1.71"/>
					
						<rect x="547.15" y="1300.55" transform="matrix(1 -4.431101e-03 4.431101e-03 1 -5.7612 2.4675)" class="st9" width="13.66" height="1.71"/>
					
						<rect x="551.51" y="994.94" transform="matrix(1 -4.431101e-03 4.431101e-03 1 -4.407 2.4838)" class="st9" width="13.66" height="1.71"/>
					
						<rect x="601.79" y="1300.31" transform="matrix(1 -4.431101e-03 4.431101e-03 1 -5.7596 2.7096)" class="st9" width="13.66" height="1.71"/>
					
						<rect x="574.47" y="1300.43" transform="matrix(1 -4.431101e-03 4.431101e-03 1 -5.7604 2.5886)" class="st9" width="13.66" height="1.71"/>
					
						<rect x="647.83" y="1007.6" transform="matrix(1 -4.430977e-03 4.430977e-03 1 -4.4885 2.8843)" class="st9" width="1.71" height="13.66"/>
					
						<rect x="633.48" y="994.59" transform="matrix(1 -4.459506e-03 4.459506e-03 1 -4.4328 2.8654)" class="st9" width="13.66" height="1.71"/>
					
						<rect x="629.11" y="1300.19" transform="matrix(1 -4.431101e-03 4.431101e-03 1 -5.7588 2.8307)" class="st9" width="13.66" height="1.71"/>
				</g>
			</g>
			<g class="st14">
				<g>
					
						<rect x="446.77" y="1009.67" transform="matrix(1 -4.371578e-03 4.371578e-03 1 -5.0162 2.3858)" class="st8" width="192.92" height="277.97"/>
				</g>
			</g>
			<g>
				<g>
					
						<rect x="498.59" y="1202.78" transform="matrix(0.5666 -0.824 0.824 0.5666 -772.7382 938.1212)" class="st9" width="13.66" height="1.71"/>
					
						<rect x="483.01" y="1225.29" transform="matrix(0.5665 -0.824 0.824 0.5665 -798.0647 935.1489)" class="st9" width="13.66" height="1.71"/>
					
						<rect x="513.97" y="1180.27" transform="matrix(0.5665 -0.824 0.824 0.5665 -747.543 941.1479)" class="st9" width="13.66" height="1.71"/>
					
						<rect x="529.55" y="1157.75" transform="matrix(0.5666 -0.824 0.824 0.5666 -722.2195 944.119)" class="st9" width="13.66" height="1.71"/>
					
						<rect x="467.68" y="1247.78" transform="matrix(0.5665 -0.8241 0.8241 0.5665 -823.2607 932.3372)" class="st9" width="13.66" height="1.71"/>
					
						<rect x="452.16" y="1270.3" transform="matrix(0.5666 -0.824 0.824 0.5666 -848.4981 929.1258)" class="st9" width="13.66" height="1.71"/>
					
						<rect x="436.61" y="1292.84" transform="matrix(0.5664 -0.8241 0.8241 0.5664 -873.89 926.3777)" class="st9" width="13.66" height="1.71"/>
					
						<rect x="606.95" y="1045.18" transform="matrix(0.5666 -0.824 0.824 0.5666 -595.916 959.1085)" class="st9" width="13.66" height="1.71"/>
					
						<rect x="622.43" y="1022.66" transform="matrix(0.5666 -0.824 0.824 0.5666 -570.6501 962.1022)" class="st9" width="13.66" height="1.71"/>
					
						<rect x="544.98" y="1135.28" transform="matrix(0.5667 -0.8239 0.8239 0.5667 -696.9858 946.9146)" class="st9" width="13.66" height="1.71"/>
					
						<rect x="637.91" y="1000.12" transform="matrix(0.5666 -0.824 0.824 0.5666 -545.36 965.0907)" class="st9" width="13.66" height="1.71"/>
					
						<rect x="560.46" y="1112.73" transform="matrix(0.5664 -0.8241 0.8241 0.5664 -671.7589 950.3474)" class="st9" width="13.66" height="1.71"/>
					
						<rect x="591.38" y="1067.7" transform="matrix(0.5665 -0.824 0.824 0.5665 -621.2222 956.1374)" class="st9" width="13.66" height="1.71"/>
					
						<rect x="575.93" y="1090.29" transform="matrix(0.5667 -0.8239 0.8239 0.5667 -646.5061 952.9263)" class="st9" width="13.66" height="1.71"/>
				</g>
			</g>
			<g>
				<g>
					
						<rect x="502.51" y="1084.43" transform="matrix(0.8213 -0.5705 0.5705 0.8213 -532.6122 482.1823)" class="st9" width="1.71" height="13.66"/>
					
						<rect x="486.93" y="1062" transform="matrix(0.8213 -0.5705 0.5705 0.8213 -522.6003 469.2804)" class="st9" width="1.71" height="13.66"/>
					
						<rect x="518.1" y="1106.88" transform="matrix(0.8213 -0.5705 0.5705 0.8213 -542.6313 495.0855)" class="st9" width="1.71" height="13.66"/>
					
						<rect x="455.75" y="1017.12" transform="matrix(0.8213 -0.5705 0.5705 0.8213 -502.5639 443.4745)" class="st9" width="1.71" height="13.66"/>
					
						<rect x="533.69" y="1129.32" transform="matrix(0.8213 -0.5705 0.5705 0.8213 -552.648 507.9896)" class="st9" width="1.71" height="13.66"/>
					
						<rect x="471.36" y="1039.54" transform="matrix(0.8213 -0.5705 0.5705 0.8213 -512.5663 456.3836)" class="st9" width="1.71" height="13.66"/>
					
						<rect x="440.17" y="994.67" transform="matrix(0.8213 -0.5705 0.5705 0.8213 -492.545 430.5714)" class="st9" width="1.71" height="13.66"/>
					
						<rect x="642.8" y="1286.41" transform="matrix(0.8213 -0.5705 0.5705 0.8213 -622.7722 598.3071)" class="st9" width="1.71" height="13.66"/>
					
						<rect x="596.04" y="1219.08" transform="matrix(0.8213 -0.5705 0.5705 0.8213 -592.7172 559.6)" class="st9" width="1.71" height="13.66"/>
					
						<rect x="611.63" y="1241.51" transform="matrix(0.8213 -0.5705 0.5705 0.8213 -602.7244 572.5032)" class="st9" width="1.71" height="13.66"/>
					
						<rect x="627.2" y="1263.98" transform="matrix(0.8213 -0.5705 0.5705 0.8213 -612.7582 585.4022)" class="st9" width="1.71" height="13.66"/>
					
						<rect x="580.45" y="1196.64" transform="matrix(0.8213 -0.5705 0.5705 0.8213 -582.6978 546.6968)" class="st9" width="1.71" height="13.66"/>
					
						<rect x="564.86" y="1174.2" transform="matrix(0.8213 -0.5705 0.5705 0.8213 -572.6838 533.7918)" class="st9" width="1.71" height="13.66"/>
					
						<rect x="549.28" y="1151.76" transform="matrix(0.8213 -0.5705 0.5705 0.8213 -562.6641 520.8901)" class="st9" width="1.71" height="13.66"/>
				</g>
			</g>
		</g>
		<g>
			<g>
				<g>
					<path class="st15" d="M784.36,777.5H440.21c-9.37,0-16.96,7.59-16.96,16.95v150.22c0,9.36,7.59,16.95,16.96,16.95h344.14
						c9.36,0,16.96-7.59,16.96-16.95V794.45C801.31,785.09,793.72,777.5,784.36,777.5z"/>
				</g>
				<g>
					<path class="st10" d="M789.45,773.87H445.29c-9.37,0-16.95,7.59-16.95,16.96v150.22c0,9.37,7.58,16.96,16.95,16.96h344.15
						c9.35,0,16.95-7.59,16.95-16.96V790.82C806.39,781.45,798.8,773.87,789.45,773.87z"/>
				</g>
				<g>
					<path class="st10" d="M1097.05,773.87H847.51c-9.37,0-16.95,7.59-16.95,16.96v150.22c0,9.37,7.58,16.96,16.95,16.96h249.54
						c9.35,0,16.95-7.59,16.95-16.96V790.82C1113.99,781.45,1106.4,773.87,1097.05,773.87z"/>
				</g>
			</g>
		</g>
		<g class="st14">
			<path class="st8" d="M1086.6,530.36H454.35c-10.91,0-19.75,8.85-19.75,19.75v127.62c0,10.91,8.85,19.75,19.75,19.75h632.25
				c10.91,0,19.75-8.85,19.75-19.75V550.11C1106.35,539.2,1097.5,530.36,1086.6,530.36z"/>
		</g>
		<g class="st16">
			<path class="st10" d="M934.71,573.55l-190.52,85.27l-139.13-38.57c-14.92-4.16-40.55-3.38-51.74,1.57l-118.73,52.67v23h671.76
				v-56.71l-113.5-66.36C981.77,567.97,948.31,567.47,934.71,573.55z"/>
		</g>
		<g>
			<ellipse class="st10" cx="742.74" cy="590.55" rx="21.54" ry="21.54"/>
		</g>
		<g>
			<g>
				<g>
					<g>
						<g>
							<path class="st9" d="M974.45,842.71c-0.19-0.27-0.62-0.13-0.62,0.2v41.69c0,0.12,0.07,0.23,0.18,0.29
								c1.12,0.59,1.66,2.11,0.62,3.53c-0.03,0.03-0.05,0.06-0.08,0.08c-1.81,1.33-3.78,0.06-3.78-1.66c0-0.84,0.47-1.57,1.16-1.95
								c0.12-0.06,0.19-0.17,0.19-0.31v-41.67c0-0.33-0.43-0.47-0.62-0.2l-28.82,47.88c-0.08,0.12-0.09,0.26-0.01,0.39l14.24,30.15
								h32.13l14.14-29.15c0.08-0.12,0.07-0.27-0.01-0.39L974.45,842.71z"/>
						</g>
					</g>
					<g>
						<path class="st17" d="M988.94,922.37h-31.92c-0.2,0-0.37,0.16-0.37,0.37v11.82c0,1.02,0.83,1.85,1.85,1.85h28.95
							c1.02,0,1.85-0.83,1.85-1.85v-11.82C989.3,922.53,989.14,922.37,988.94,922.37z"/>
					</g>
				</g>
				<g>
					<g>
						<g>
							<g>
								<g>
									<path class="st8" d="M929.73,788.36h-1.77c0,24.9,20.26,45.15,45.15,45.15v-1.77
										C949.19,831.74,929.73,812.28,929.73,788.36z"/>
								</g>
							</g>
							<g>
								<g>
									<path class="st8" d="M973.1,832.33v1.77c23.92,0,43.38,19.46,43.38,43.38h1.77C1018.26,852.58,998,832.33,973.1,832.33z"/>
								</g>
							</g>
						</g>
						<g>
							<g>
								<rect x="925.6" y="785.7" class="st17" width="6.49" height="6.49"/>
							</g>
							<g>
								<rect x="1013.53" y="873.05" class="st17" width="6.49" height="6.49"/>
							</g>
						</g>
					</g>
					<g>
						<g>
							<g>
								<rect x="915.24" y="832.03" class="st8" width="116.86" height="1.77"/>
							</g>
						</g>
						<g>
							<g>
								<rect x="969.53" y="830.27" class="st17" width="6.49" height="6.49"/>
							</g>
							<g>
								<rect x="911.84" y="830.27" class="st17" width="6.49" height="6.49"/>
							</g>
							<g>
								<rect x="1027.52" y="830.27" class="st17" width="6.49" height="6.49"/>
							</g>
						</g>
					</g>
				</g>
			</g>
		</g>
		<g>
			<g>
				<g>
					<g>
						<g>
							<g>
								<g>
									<polygon class="st8" points="622.74,918.67 619.96,918.67 619.96,919.63 623.7,919.63 623.7,915.89 622.74,915.89 
																			"/>
								</g>
							</g>
							<g>
								<g>
									<rect x="489.45" y="918.67" class="st8" width="6.52" height="0.96"/>
									<rect x="528.6" y="918.67" class="st8" width="6.52" height="0.96"/>
									<rect x="515.55" y="918.67" class="st8" width="6.52" height="0.96"/>
									<rect x="463.34" y="918.67" class="st8" width="6.52" height="0.96"/>
									<rect x="476.39" y="918.67" class="st8" width="6.52" height="0.96"/>
									<rect x="502.49" y="918.67" class="st8" width="6.52" height="0.96"/>
									<rect x="593.86" y="918.67" class="st8" width="6.52" height="0.96"/>
									<rect x="606.92" y="918.67" class="st8" width="6.52" height="0.96"/>
									<rect x="541.65" y="918.67" class="st8" width="6.52" height="0.96"/>
									<rect x="580.81" y="918.67" class="st8" width="6.52" height="0.96"/>
									<rect x="567.76" y="918.67" class="st8" width="6.52" height="0.96"/>
									<rect x="554.71" y="918.67" class="st8" width="6.52" height="0.96"/>
								</g>
							</g>
							<g>
								<g>
									<polygon class="st8" points="454.04,915.89 453.08,915.89 453.08,919.63 456.81,919.63 456.81,918.67 454.04,918.67 
																			"/>
								</g>
							</g>
							<g>
								<g>
									<rect x="453.08" y="878.57" class="st8" width="0.96" height="6.22"/>
									<rect x="453.08" y="891.02" class="st8" width="0.96" height="6.22"/>
									<rect x="453.08" y="903.45" class="st8" width="0.96" height="6.22"/>
									<rect x="453.08" y="866.13" class="st8" width="0.96" height="6.22"/>
									<rect x="453.08" y="853.69" class="st8" width="0.96" height="6.22"/>
									<rect x="453.08" y="828.81" class="st8" width="0.96" height="6.22"/>
									<rect x="453.08" y="816.37" class="st8" width="0.96" height="6.22"/>
									<rect x="453.08" y="841.25" class="st8" width="0.96" height="6.22"/>
								</g>
							</g>
							<g>
								<g>
									<polygon class="st8" points="453.08,810.14 454.04,810.14 454.04,807.37 456.81,807.37 456.81,806.41 453.08,806.41 
																			"/>
								</g>
							</g>
							<g>
								<g>
									<rect x="515.55" y="806.41" class="st8" width="6.52" height="0.96"/>
									<rect x="528.6" y="806.41" class="st8" width="6.52" height="0.96"/>
									<rect x="502.49" y="806.41" class="st8" width="6.52" height="0.96"/>
									<rect x="463.34" y="806.41" class="st8" width="6.52" height="0.96"/>
									<rect x="476.39" y="806.41" class="st8" width="6.52" height="0.96"/>
									<rect x="489.45" y="806.41" class="st8" width="6.52" height="0.96"/>
									<rect x="554.7" y="806.41" class="st8" width="6.52" height="0.96"/>
									<rect x="606.92" y="806.41" class="st8" width="6.52" height="0.96"/>
									<rect x="593.86" y="806.41" class="st8" width="6.52" height="0.96"/>
									<rect x="567.76" y="806.41" class="st8" width="6.52" height="0.96"/>
									<rect x="541.65" y="806.41" class="st8" width="6.52" height="0.96"/>
									<rect x="580.81" y="806.41" class="st8" width="6.52" height="0.96"/>
								</g>
							</g>
							<g>
								<g>
									<polygon class="st8" points="619.96,807.37 622.74,807.37 622.74,810.14 623.7,810.14 623.7,806.41 619.96,806.41 
																			"/>
								</g>
							</g>
							<g>
								<g>
									<rect x="622.74" y="891.02" class="st8" width="0.96" height="6.22"/>
									<rect x="622.74" y="878.57" class="st8" width="0.96" height="6.22"/>
									<rect x="622.74" y="866.13" class="st8" width="0.96" height="6.22"/>
									<rect x="622.74" y="903.45" class="st8" width="0.96" height="6.22"/>
									<rect x="622.74" y="828.81" class="st8" width="0.96" height="6.22"/>
									<rect x="622.74" y="816.37" class="st8" width="0.96" height="6.22"/>
									<rect x="622.74" y="853.69" class="st8" width="0.96" height="6.22"/>
									<rect x="622.74" y="841.25" class="st8" width="0.96" height="6.22"/>
								</g>
							</g>
						</g>
						<g>
							<g>
								<path class="st15" d="M558.6,817.81c-7.9,0-15.02,3.35-20.02,8.69c5.22,4.99,8.48,12.03,8.48,19.82
									c0,2.32-0.29,4.58-0.83,6.72c9.44,2.25,16.98,9.37,19.82,18.57c11.53-3.24,19.98-13.84,19.98-26.39
									C586.02,830.08,573.74,817.81,558.6,817.81z"/>
							</g>
							<g>
								<path class="st11" d="M519.63,818.91c-15.14,0-27.42,12.28-27.42,27.42c0,12.95,8.97,23.8,21.04,26.67
									c2.4-9.5,9.75-17.03,19.15-19.67c-0.79-2.56-1.22-5.28-1.22-8.1c0-7.24,2.81-13.83,7.39-18.73
									C533.65,821.8,526.97,818.91,519.63,818.91z"/>
							</g>
							<g>
								<path class="st18" d="M531.18,845.23c0,2.82,0.43,5.54,1.22,8.1c2.37-0.66,4.86-1.03,7.44-1.03c2.2,0,4.33,0.26,6.38,0.75
									c0.54-2.15,0.83-4.4,0.83-6.72c0-7.79-3.26-14.83-8.48-19.82C533.98,831.41,531.18,837.99,531.18,845.23z"/>
							</g>
							<g>
								<path class="st19" d="M531.18,845.23c0,2.82,0.43,5.54,1.22,8.1c2.37-0.66,4.86-1.03,7.44-1.03c2.2,0,4.33,0.26,6.38,0.75
									c0.54-2.15,0.83-4.4,0.83-6.72c0-7.79-3.26-14.83-8.48-19.82C533.98,831.41,531.18,837.99,531.18,845.23z"/>
							</g>
							<g>
								<path class="st2" d="M558.6,872.65c-7.34,0-14.02-2.89-18.94-7.59c-5,5.35-12.12,8.69-20.02,8.69
									c-2.2,0-4.33-0.26-6.38-0.75c-0.54,2.15-0.83,4.4-0.83,6.72c0,15.14,12.28,27.42,27.42,27.42s27.42-12.28,27.42-27.42
									c0-2.82-0.43-5.54-1.22-8.1C563.67,872.29,561.18,872.65,558.6,872.65z"/>
							</g>
							<g>
								<path class="st18" d="M546.22,853.06c-1.15,4.56-3.45,8.67-6.56,12c4.93,4.71,11.59,7.59,18.94,7.59
									c2.58,0,5.07-0.35,7.44-1.03C563.2,862.44,555.65,855.31,546.22,853.06z"/>
							</g>
							<g>
								<path class="st9" d="M546.22,853.06c-1.15,4.56-3.45,8.67-6.56,12c4.93,4.71,11.59,7.59,18.94,7.59
									c2.58,0,5.07-0.35,7.44-1.03C563.2,862.44,555.65,855.31,546.22,853.06z"/>
							</g>
							<g>
								<path class="st20" d="M513.25,873c2.05,0.49,4.18,0.75,6.38,0.75c7.9,0,15.02-3.35,20.02-8.69
									c-3.33-3.18-5.87-7.21-7.27-11.73C523,855.98,515.64,863.5,513.25,873z"/>
							</g>
							<g>
								<path class="st8" d="M513.25,873c2.05,0.49,4.18,0.75,6.38,0.75c7.9,0,15.02-3.35,20.02-8.69
									c-3.33-3.18-5.87-7.21-7.27-11.73C523,855.98,515.64,863.5,513.25,873z"/>
							</g>
							<g>
								<path class="st18" d="M532.39,853.33c1.39,4.52,3.93,8.54,7.27,11.73c3.11-3.33,5.41-7.44,6.56-12
									c-2.05-0.49-4.18-0.75-6.38-0.75C537.26,852.31,534.76,852.66,532.39,853.33z"/>
							</g>
							<g>
								<path class="st20" d="M532.39,853.33c1.39,4.52,3.93,8.54,7.27,11.73c3.11-3.33,5.41-7.44,6.56-12
									c-2.05-0.49-4.18-0.75-6.38-0.75C537.26,852.31,534.76,852.66,532.39,853.33z"/>
							</g>
							<g>
								<path class="st17" d="M532.39,853.33c1.39,4.52,3.93,8.54,7.27,11.73c3.11-3.33,5.41-7.44,6.56-12
									c-2.05-0.49-4.18-0.75-6.38-0.75C537.26,852.31,534.76,852.66,532.39,853.33z"/>
							</g>
						</g>
						<g>
							<g>
								<g>
									<g>
										<rect x="451.44" y="804.21" class="st9" width="7.94" height="7.94"/>
									</g>
									<g>
										<path class="st9" d="M450.36,813.23h10.11v-10.11h-10.11V813.23z M452.52,805.3h5.77v5.77h-5.77V805.3z"/>
									</g>
								</g>
								<g>
									<g>
										<rect x="618.84" y="804.21" class="st9" width="7.94" height="7.94"/>
									</g>
									<g>
										<path class="st9" d="M617.76,813.23h10.11v-10.11h-10.11V813.23z M619.93,805.3h5.77v5.77h-5.77V805.3z"/>
									</g>
								</g>
							</g>
							<g>
								<g>
									<g>
										<rect x="451.44" y="912.81" class="st9" width="7.94" height="7.94"/>
									</g>
									<g>
										<path class="st9" d="M450.36,921.83h10.11v-10.11h-10.11V921.83z M452.52,913.9h5.77v5.77h-5.77V913.9z"/>
									</g>
								</g>
								<g>
									<g>
										<rect x="618.84" y="912.81" class="st9" width="7.94" height="7.94"/>
									</g>
									<g>
										<path class="st9" d="M617.76,921.83h10.11v-10.11h-10.11V921.83z M619.93,913.9h5.77v5.77h-5.77V913.9z"/>
									</g>
								</g>
							</g>
						</g>
					</g>
				</g>
				<g>
					<path class="st11" d="M597.42,917.43l-33.87-11.39c-1.25-0.42-2.45,0.75-2.06,2.01l10.5,33.83c0.46,1.49,2.56,1.52,3.07,0.05
						l5.29-15.34c0.17-0.48,0.55-0.86,1.04-1.01l16-5.07C598.88,920.03,598.9,917.93,597.42,917.43z"/>
				</g>
			</g>
		</g>
		<g>
			<g>
				<path class="st2" d="M780.84,820.64H648.66c-2.46,0-4.45,1.99-4.45,4.45c0,2.46,1.99,4.45,4.45,4.45h132.18
					c2.46,0,4.45-2,4.45-4.45C785.29,822.63,783.3,820.64,780.84,820.64z"/>
			</g>
			<g>
				<path class="st2" d="M780.84,847.51H648.66c-2.46,0-4.45,1.99-4.45,4.45c0,2.46,1.99,4.45,4.45,4.45h132.18
					c2.46,0,4.45-1.99,4.45-4.45C785.29,849.5,783.3,847.51,780.84,847.51z"/>
			</g>
			<g>
				<path class="st2" d="M732.9,874.39h-84.24c-2.46,0-4.45,1.99-4.45,4.44c0,2.46,1.99,4.45,4.45,4.45h84.25
					c2.45,0,4.44-1.99,4.44-4.45C737.34,876.37,735.35,874.39,732.9,874.39z"/>
			</g>
		</g>
		<g>
			<g>
				<g>
					<polygon class="st10" points="854.23,594.34 867.26,594.34 867.26,627.38 876.68,627.38 876.68,594.34 889.71,594.34 
						889.71,586.66 854.23,586.66 					"/>
				</g>
				<g>
					<polygon class="st10" points="904.14,610.39 923.05,610.39 923.05,603.06 904.14,603.06 904.14,594.22 925.55,594.22 
						925.55,586.66 894.77,586.66 894.77,627.38 926.3,627.38 926.3,619.82 904.14,619.82 					"/>
				</g>
				<g>
					<polygon class="st10" points="968.95,586.66 958.77,586.66 949.57,599.86 940.21,586.66 929.5,586.66 943.81,606.67 
						928.75,627.38 939.57,627.38 949.22,613.24 959.06,627.38 969.93,627.38 954.75,606.32 					"/>
				</g>
				<g>
					<polygon class="st10" points="968.6,594.34 981.63,594.34 981.63,627.38 991.05,627.38 991.05,594.34 1004.08,594.34 
						1004.08,586.66 968.6,586.66 					"/>
				</g>
			</g>
		</g>
		<g>
			<g>
				<g>
					<g>
						<polygon class="st10" points="1010.81,660.45 1008.03,660.45 1008.03,661.41 1011.77,661.41 1011.77,657.67 1010.81,657.67 
													"/>
					</g>
				</g>
				<g>
					<g>
						<rect x="916.66" y="660.45" class="st10" width="6.52" height="0.96"/>
						<rect x="890.56" y="660.45" class="st10" width="6.52" height="0.96"/>
						<rect x="903.61" y="660.45" class="st10" width="6.52" height="0.96"/>
						<rect x="851.4" y="660.45" class="st10" width="6.52" height="0.96"/>
						<rect x="877.51" y="660.45" class="st10" width="6.52" height="0.96"/>
						<rect x="864.45" y="660.45" class="st10" width="6.52" height="0.96"/>
						<rect x="929.72" y="660.45" class="st10" width="6.52" height="0.96"/>
						<rect x="994.98" y="660.45" class="st10" width="6.52" height="0.96"/>
						<rect x="942.77" y="660.45" class="st10" width="6.52" height="0.96"/>
						<rect x="981.92" y="660.45" class="st10" width="6.52" height="0.96"/>
						<rect x="955.82" y="660.45" class="st10" width="6.52" height="0.96"/>
						<rect x="968.87" y="660.45" class="st10" width="6.52" height="0.96"/>
					</g>
				</g>
				<g>
					<g>
						<polygon class="st10" points="842.1,657.67 841.14,657.67 841.14,661.41 844.87,661.41 844.87,660.45 842.1,660.45 						"/>
					</g>
				</g>
				<g>
					<g>
						<rect x="841.14" y="607.9" class="st10" width="0.96" height="6.22"/>
						<rect x="841.14" y="620.35" class="st10" width="0.96" height="6.22"/>
						<rect x="841.14" y="632.79" class="st10" width="0.96" height="6.22"/>
						<rect x="841.14" y="645.23" class="st10" width="0.96" height="6.22"/>
						<rect x="841.14" y="595.46" class="st10" width="0.96" height="6.22"/>
						<rect x="841.14" y="558.14" class="st10" width="0.96" height="6.22"/>
						<rect x="841.14" y="570.58" class="st10" width="0.96" height="6.22"/>
						<rect x="841.14" y="583.02" class="st10" width="0.96" height="6.22"/>
					</g>
				</g>
				<g>
					<g>
						<polygon class="st10" points="841.14,551.92 842.1,551.92 842.1,549.15 844.87,549.15 844.87,548.19 841.14,548.19 						"/>
					</g>
				</g>
				<g>
					<g>
						<rect x="890.56" y="548.19" class="st10" width="6.52" height="0.96"/>
						<rect x="903.61" y="548.19" class="st10" width="6.52" height="0.96"/>
						<rect x="916.66" y="548.19" class="st10" width="6.52" height="0.96"/>
						<rect x="851.4" y="548.19" class="st10" width="6.52" height="0.96"/>
						<rect x="877.51" y="548.19" class="st10" width="6.52" height="0.96"/>
						<rect x="864.45" y="548.19" class="st10" width="6.52" height="0.96"/>
						<rect x="955.82" y="548.19" class="st10" width="6.52" height="0.96"/>
						<rect x="929.72" y="548.19" class="st10" width="6.52" height="0.96"/>
						<rect x="981.92" y="548.19" class="st10" width="6.52" height="0.96"/>
						<rect x="994.98" y="548.19" class="st10" width="6.52" height="0.96"/>
						<rect x="942.77" y="548.19" class="st10" width="6.52" height="0.96"/>
						<rect x="968.87" y="548.19" class="st10" width="6.52" height="0.96"/>
					</g>
				</g>
				<g>
					<g>
						<polygon class="st10" points="1008.03,549.15 1010.81,549.15 1010.81,551.92 1011.77,551.92 1011.77,548.19 1008.03,548.19 
													"/>
					</g>
				</g>
				<g>
					<g>
						<rect x="1010.81" y="632.79" class="st10" width="0.96" height="6.22"/>
						<rect x="1010.81" y="620.35" class="st10" width="0.96" height="6.22"/>
						<rect x="1010.81" y="607.9" class="st10" width="0.96" height="6.22"/>
						<rect x="1010.81" y="645.22" class="st10" width="0.96" height="6.22"/>
						<rect x="1010.81" y="595.46" class="st10" width="0.96" height="6.22"/>
						<rect x="1010.81" y="570.58" class="st10" width="0.96" height="6.22"/>
						<rect x="1010.81" y="583.02" class="st10" width="0.96" height="6.22"/>
						<rect x="1010.81" y="558.14" class="st10" width="0.96" height="6.22"/>
					</g>
				</g>
			</g>
			<g>
				<g>
					<g>
						<g>
							<path class="st10" d="M838.42,555.01h10.11V544.9h-10.11V555.01z M840.59,547.07h5.77v5.77h-5.77V547.07z"/>
						</g>
					</g>
					<g>
						<g>
							<path class="st10" d="M1005.82,555.01h10.11V544.9h-10.11V555.01z M1007.99,547.07h5.77v5.77h-5.77V547.07z"/>
						</g>
					</g>
				</g>
				<g>
					<g>
						<g>
							<path class="st10" d="M838.42,663.61h10.11V653.5h-10.11V663.61z M840.59,655.67h5.77v5.77h-5.77V655.67z"/>
						</g>
					</g>
					<g>
						<g>
							<path class="st10" d="M1005.82,663.61h10.11V653.5h-10.11V663.61z M1007.99,655.67h5.77v5.77h-5.77V655.67z"/>
						</g>
					</g>
				</g>
			</g>
		</g>
		<g>
			<g>
				<path class="st21" d="M641.46,1394.92c-0.49-3.64,2.02-6.99,5.6-7.49c0.29-0.04,0.58-0.03,0.86-0.03
					c-0.77-2.55-1.79-4.97-3.01-7.26c-0.19,0.19-0.36,0.39-0.57,0.55c-2.86,2.25-6.98,1.72-9.19-1.18c-2.22-2.9-1.7-7.08,1.16-9.33
					c0.21-0.17,0.44-0.28,0.66-0.42c-1.89-1.77-3.94-3.35-6.13-4.73c-0.06,0.23-0.11,0.46-0.2,0.69c-1.37,3.4-5.19,5.04-8.54,3.64
					c-3.35-1.39-4.96-5.27-3.59-8.67c0.09-0.23,0.23-0.44,0.34-0.65c-2.47-0.57-5.01-0.9-7.6-0.99c0.05,0.22,0.12,0.43,0.15,0.66
					c0.49,3.64-2.02,6.99-5.6,7.49c-3.58,0.5-6.89-2.05-7.38-5.69c-0.03-0.24-0.02-0.48-0.03-0.72c-2.48,0.77-4.85,1.77-7.09,2.98
					c0.16,0.17,0.33,0.32,0.48,0.51c2.22,2.9,1.7,7.08-1.16,9.33c-2.86,2.25-6.98,1.72-9.19-1.18c-0.15-0.21-0.27-0.43-0.4-0.64
					c-1.75,1.91-3.33,3.98-4.69,6.19c0.23,0.06,0.47,0.12,0.7,0.21c3.35,1.39,4.96,5.27,3.59,8.67c-1.37,3.4-5.19,5.04-8.54,3.64
					c-0.26-0.11-0.5-0.26-0.73-0.39c-0.59,2.53-0.93,5.14-1.03,7.8c0.26-0.07,0.52-0.15,0.8-0.19c3.58-0.5,6.89,2.04,7.38,5.69
					c0.49,3.64-2.02,6.99-5.6,7.49c-0.32,0.05-0.63,0.03-0.93,0.03c0.76,2.58,1.76,5.04,2.97,7.35c0.21-0.23,0.43-0.45,0.68-0.65
					c2.86-2.25,6.98-1.72,9.19,1.18s1.7,7.08-1.16,9.33c-0.27,0.21-0.57,0.38-0.86,0.54c1.92,1.83,4.01,3.47,6.25,4.88
					c0.08-0.33,0.15-0.65,0.28-0.97c1.37-3.4,5.19-5.04,8.54-3.64c3.35,1.39,4.96,5.27,3.59,8.67c-0.14,0.34-0.32,0.66-0.5,0.96
					c2.55,0.61,5.17,0.96,7.85,1.04c-0.1-0.34-0.19-0.67-0.24-1.03c-0.49-3.64,2.02-6.99,5.6-7.49c3.58-0.5,6.89,2.04,7.38,5.69
					c0.05,0.37,0.05,0.73,0.04,1.1c2.57-0.79,5.01-1.84,7.31-3.09c-0.25-0.24-0.5-0.48-0.72-0.76c-2.22-2.9-1.7-7.08,1.16-9.33
					s6.98-1.72,9.19,1.18c0.22,0.28,0.39,0.59,0.55,0.9c1.79-1.96,3.39-4.09,4.76-6.38c-0.32-0.08-0.63-0.15-0.93-0.28
					c-3.35-1.39-4.96-5.27-3.59-8.67c1.37-3.4,5.19-5.04,8.54-3.64c0.3,0.13,0.58,0.3,0.86,0.46c0.57-2.56,0.9-5.2,0.97-7.88
					c-0.28,0.08-0.56,0.17-0.86,0.21C645.26,1401.11,641.96,1398.56,641.46,1394.92z M613.62,1426.22
					c-14.61,2.03-28.07-8.34-30.08-23.17s8.21-28.5,22.82-30.53c14.61-2.03,28.07,8.34,30.08,23.17
					C638.45,1410.51,628.22,1424.18,613.62,1426.22z"/>
			</g>
		</g>
		<g>
			<g>
				<path class="st22" d="M560.24,1389.87c-0.57-5.63,3.45-10.67,9-11.26c0.45-0.05,0.89-0.02,1.33-0.01
					c-1.07-3.96-2.51-7.76-4.27-11.33c-0.3,0.28-0.57,0.58-0.92,0.83c-4.51,3.32-10.82,2.3-14.1-2.28
					c-3.28-4.58-2.26-10.99,2.25-14.31c0.34-0.24,0.69-0.41,1.04-0.61c-2.82-2.82-5.91-5.37-9.21-7.59
					c-0.11,0.35-0.19,0.71-0.34,1.06c-2.28,5.17-8.25,7.48-13.34,5.18c-5.09-2.31-7.38-8.37-5.1-13.54
					c0.15-0.35,0.37-0.66,0.55-0.99c-3.77-1.01-7.67-1.65-11.66-1.9c0.07,0.34,0.17,0.67,0.21,1.03c0.57,5.63-3.45,10.67-9,11.26
					c-5.54,0.59-10.51-3.51-11.08-9.14c-0.04-0.38-0.01-0.74-0.01-1.12c-3.86,1.06-7.56,2.48-11.06,4.22
					c0.24,0.27,0.5,0.51,0.71,0.81c3.28,4.58,2.26,10.99-2.25,14.31c-4.51,3.32-10.82,2.3-14.1-2.28c-0.23-0.32-0.39-0.67-0.58-1.01
					c-2.8,2.85-5.33,5.96-7.53,9.3c0.36,0.12,0.72,0.2,1.07,0.36c5.09,2.31,7.38,8.37,5.1,13.54c-2.28,5.17-8.25,7.48-13.33,5.18
					c-0.4-0.18-0.75-0.43-1.12-0.64c-1.03,3.87-1.7,7.87-1.97,11.97c0.41-0.1,0.81-0.21,1.24-0.26c5.54-0.59,10.51,3.51,11.09,9.14
					c0.57,5.63-3.45,10.67-9,11.26c-0.48,0.05-0.96,0.02-1.44,0.01c1.04,4.01,2.46,7.85,4.22,11.48c0.34-0.34,0.68-0.68,1.07-0.97
					c4.51-3.32,10.82-2.3,14.1,2.28c3.28,4.58,2.26,10.99-2.25,14.31c-0.43,0.32-0.89,0.55-1.35,0.79c2.86,2.92,6,5.54,9.37,7.84
					c0.14-0.5,0.27-1,0.48-1.48c2.28-5.17,8.25-7.48,13.33-5.18c5.09,2.31,7.38,8.37,5.1,13.54c-0.23,0.52-0.52,0.99-0.83,1.46
					c3.89,1.06,7.92,1.74,12.04,2c-0.14-0.52-0.26-1.04-0.32-1.59c-0.57-5.63,3.46-10.67,9-11.26c5.54-0.59,10.51,3.51,11.09,9.14
					c0.06,0.57,0.04,1.13,0.01,1.7c3.99-1.09,7.81-2.57,11.41-4.4c-0.37-0.38-0.74-0.76-1.06-1.21c-3.28-4.58-2.26-10.99,2.25-14.31
					c4.51-3.32,10.82-2.3,14.1,2.28c0.32,0.45,0.57,0.93,0.81,1.41c2.86-2.93,5.42-6.14,7.66-9.57c-0.48-0.14-0.95-0.26-1.42-0.48
					c-5.09-2.31-7.38-8.37-5.1-13.54c2.28-5.17,8.25-7.48,13.33-5.18c0.46,0.21,0.88,0.48,1.3,0.75c1.01-3.91,1.64-7.96,1.88-12.09
					c-0.44,0.11-0.87,0.23-1.33,0.28C565.78,1399.6,560.81,1395.51,560.24,1389.87z M515.8,1436.65
					c-22.6,2.39-42.83-14.28-45.17-37.22c-2.35-22.94,14.07-43.48,36.67-45.86c22.6-2.39,42.83,14.28,45.17,37.22
					C554.82,1413.73,538.4,1434.27,515.8,1436.65z"/>
			</g>
		</g>
		<g>
			<g>
				<g>
					<path class="st11" d="M1104.87,1398.53H714.35c-4.85,0-8.79,3.93-8.79,8.79v36.52c0,4.85,3.93,8.79,8.79,8.79h390.52
						c4.85,0,8.79-3.93,8.79-8.79v-36.52C1113.67,1402.46,1109.73,1398.53,1104.87,1398.53z"/>
				</g>
				<g>
					<path class="st8" d="M1104.87,1398.53h-44.01v54.1h44.01c4.85,0,8.79-3.93,8.79-8.79v-36.52
						C1113.67,1402.46,1109.73,1398.53,1104.87,1398.53z"/>
				</g>
			</g>
			<g>
				<g>
					<path class="st10" d="M1093.58,1411.72L1093.58,1411.72c-2.62-2.62-6.12-4.07-9.84-4.07c-3.71,0-7.21,1.44-9.84,4.07
						c-5.42,5.42-5.42,14.25,0,19.67c2.63,2.62,6.12,4.07,9.84,4.07c3.71,0,7.21-1.44,9.84-4.07s4.07-6.12,4.07-9.84
						C1097.65,1417.83,1096.21,1414.34,1093.58,1411.72L1093.58,1411.72z M1090.2,1428c-1.72,1.72-4.02,2.68-6.45,2.68
						c-2.44,0-4.73-0.95-6.45-2.68c-3.56-3.56-3.56-9.35,0-12.91c1.72-1.72,4.02-2.68,6.45-2.68c2.44,0,4.73,0.95,6.45,2.68l0,0
						c1.72,1.72,2.68,4.02,2.68,6.45C1092.87,1423.99,1091.92,1426.28,1090.2,1428z"/>
				</g>
				<g>
					<path class="st10" d="M1093.58,1428c-0.93-0.93-2.45-0.93-3.38,0s-0.93,2.45,0,3.38l11.3,11.3c0.46,0.46,1.08,0.7,1.69,0.7
						s1.22-0.23,1.69-0.7c0.93-0.93,0.93-2.45,0-3.38L1093.58,1428z"/>
				</g>
			</g>
		</g>
		<g>
			<g>
				<g>
					<g>
						<rect x="644.25" y="991.92" class="st9" width="7.94" height="7.94"/>
					</g>
					<g>
						<path class="st9" d="M643.17,1000.94h10.11v-10.11h-10.11V1000.94z M645.34,993.01h5.77v5.77h-5.77V993.01z"/>
					</g>
				</g>
				<g>
					<g>
						<rect x="433.29" y="991.92" class="st9" width="7.94" height="7.94"/>
					</g>
					<g>
						<path class="st9" d="M432.2,1000.94h10.11v-10.11H432.2V1000.94z M434.38,993.01h5.77v5.77h-5.77V993.01z"/>
					</g>
				</g>
			</g>
			<g>
				<g>
					<g>
						<rect x="646.51" y="1295.85" class="st9" width="7.94" height="7.94"/>
					</g>
					<g>
						<path class="st9" d="M645.42,1304.88h10.11v-10.11h-10.11V1304.88z M647.6,1296.93h5.77v5.77h-5.77V1296.93z"/>
					</g>
				</g>
				<g>
					<g>
						<rect x="435.54" y="1295.85" class="st9" width="7.94" height="7.94"/>
					</g>
					<g>
						<path class="st9" d="M434.46,1304.88h10.11v-10.11h-10.11V1304.88z M436.63,1296.93h5.77v5.77h-5.77V1296.93z"/>
					</g>
				</g>
			</g>
		</g>
	</g>
	<g>
		<g>
			<g>
				<path class="st8" d="M1183.59,465.57l18.41,51.88c5.05-0.59,10.11,2.43,11.88,7.43c2.08,5.87-1.04,12.32-6.92,14.41
					c-5.87,2.08-12.3-0.97-14.38-6.85c-1.61-4.54-0.18-9.41,3.28-12.37L1177.03,467l-17.1,113.26l28.11-9.97l12.84,36.19
					l51.21-18.17l-12.84-36.19l30.04-10.66L1183.59,465.57z"/>
			</g>
			<g>
				
					<rect x="1190.21" y="587.01" transform="matrix(0.9424 -0.3344 0.3344 0.9424 -129.0136 444.1194)" class="st8" width="70.25" height="19.48"/>
			</g>
		</g>
		<g>
			<g>
				<path class="st9" d="M1554.39,1405.71l-290.56-799.18l9.43-3.91c3.65-1.5,5.41-5.74,3.94-9.41c-0.12-0.29-0.26-0.56-0.42-0.83
					c-1.71-3.03-5.31-4.48-8.66-3.35l-43.61,14.92l-37.61,12.84c-3.63,1.19-5.55,5.21-4.23,8.81c0.12,0.39,0.3,0.79,0.49,1.14
					c1.43,2.53,4.44,3.92,7.4,3.26l6.5-1.39l275.21,815.8c6.8,20.19,29.54,30.1,48.96,21.41l16.74-7.53
					c17.22-7.75,25.55-27.48,19.11-45.23L1554.39,1405.71z"/>
			</g>
			<g class="st23">
				<path class="st17" d="M1554.39,1405.71c-34.02-2.48-64.73-24.89-76.41-59.01L1224.5,603.96l-37.61,12.84
					c-3.63,1.19-5.55,5.21-4.23,8.81c0.12,0.39,0.3,0.79,0.49,1.14c1.43,2.53,4.44,3.92,7.4,3.26l6.5-1.39l275.21,815.8
					c6.8,20.19,29.54,30.1,48.96,21.41l16.74-7.53c17.22-7.75,25.55-27.48,19.11-45.23L1554.39,1405.71z"/>
			</g>
		</g>
	</g>
	<g>
		<g>
			<g>
				<path class="st24" d="M1579.17,1456.34c15.43-6.78,22.53-24.75,15.84-40.24c-6.69-15.5-24.64-22.65-40.15-16.07l-22.16,7.96
					c-1.42,0.51-2.45,1.48-3.05,2.86c-0.61,1.38-0.61,2.8-0.01,4.18l21.33,49.38c0.59,1.37,1.62,2.35,3.05,2.86
					c1.41,0.5,2.83,0.42,4.16-0.28L1579.17,1456.34z"/>
			</g>
			<g>
				<g>
					<path class="st25" d="M1601.87,1367.03L1601.87,1367.03c-3.34,1.77-39.93,19.11-43.16,22.73c-3.24,3.6-0.02,7.35-0.02,7.35
						c17.77,7.99,8.58,35.87,8.58,35.87s16.18,38.1,15.96,41.96c-0.22,3.86,1.73,6.61,9.59,7.36c7.87,0.74,30.06-0.71,53.03,18.4
						c9.17,7.64,17.38,15.14,24.99,21.17c6.95,5.27,10.67,0.68,8.49-4.36c-2.18-5.04-61.22-137.6-64.88-146.06
						C1610.86,1363.1,1602.15,1366.9,1601.87,1367.03z"/>
				</g>
				<g>
					<path class="st26" d="M1575.78,1475.36c10.73-0.04,21.46-0.16,42.23,5.06l0,0c5.84,2.17,7.35-0.75,5.79-4.36
						c-1.56-3.61-8.19-18.95-10.5-24.32c-1.81-4.18-6.29-6.76-8.19-7.68l-0.82-0.37l-0.03-0.02l-0.01-0.01l0,0
						c-18.53-8.41-33.36-13.36-41.75-9.73c-13.09,5.65-5.34,26.01-0.09,35.27C1564.82,1473.45,1568.03,1475.38,1575.78,1475.36z"/>
				</g>
				<g>
					<path class="st24" d="M1612.93,1450.97c0,0,6.99,16.2,15.91,36.84c8.91,20.63,27.58,45.32,48.85,36.13l-33.12-76.71
						l-10.81-25.04C1633.76,1422.19,1604.58,1431.86,1612.93,1450.97z"/>
				</g>
				<g>
					<path class="st24" d="M1673.12,1522.53l-67.22-155.66c-0.65-1.5,0.05-3.29,1.59-3.95l5.58-2.4c1.53-0.66,3.33,0.05,3.98,1.55
						l67.22,155.66c0.66,1.52-0.06,3.32-1.59,3.98l-5.58,2.4C1675.56,1524.78,1673.78,1524.05,1673.12,1522.53z"/>
				</g>
				<g>
					<g>
						<path class="st10" d="M1573.81,1443.13c0.01,0.03,0.03,0.06,0.04,0.09c0.19,0.54,0.42,1.1,0.65,1.65l9.96,23.07
							c0.29,0.68-0.03,1.44-0.7,1.73c-0.66,0.28-1.43-0.01-1.72-0.69l-9.96-23.07c-0.26-0.61-0.52-1.21-0.72-1.82
							c-0.24-0.68,0.12-1.44,0.81-1.68C1572.81,1442.18,1573.55,1442.51,1573.81,1443.13z"/>
					</g>
					<g>
						<path class="st10" d="M1586.93,1447.24l9.66,22.37c0.29,0.67-0.02,1.44-0.69,1.73c-0.66,0.28-1.44-0.02-1.73-0.69l-9.66-22.37
							c-0.28-0.66,0.03-1.44,0.69-1.73C1585.87,1446.27,1586.65,1446.58,1586.93,1447.24z"/>
					</g>
					<g>
						<path class="st10" d="M1600.13,1451.38l8.59,19.9c0.28,0.66-0.02,1.43-0.69,1.72s-1.44-0.02-1.73-0.68l-8.59-19.9
							c-0.28-0.66,0.02-1.44,0.69-1.73C1599.08,1450.4,1599.85,1450.72,1600.13,1451.38z"/>
					</g>
				</g>
			</g>
		</g>
		<g>
			<g>
				<g>
					<g>
						<path class="st2" d="M1598.02,1043c-3.05,28.32,7.29,68.3,36.49,67.8c0,0,21.5-18.47,5.62-53.38
							C1624.24,1022.52,1601.07,1014.68,1598.02,1043z"/>
					</g>
					<g>
						<path class="st10" d="M1625.02,1084.59c-7.58,12.16-27.5-30.12-27.5-30.12l-27.75-0.25l21.39,51.98c0,0,23.98-2.59,35.7-10.5
							c9.52-6.43,2.35-27.9-0.66-35.7C1627.97,1065,1630.6,1075.64,1625.02,1084.59z"/>
						<path class="st10" d="M1626.2,1060c-0.64-1.79-1.17-2.87-1.17-2.87S1625.5,1058.2,1626.2,1060z"/>
					</g>
					<g>
						<path class="st11" d="M1596.48,1015.04c-23.35,29.19-61.97,33.02-61.97,33.02l17.65,97.34c0,0,51.79-17.14,65.67-22.83
							c13.88-5.69,16.7-11.75,16.7-11.75C1594.98,1104.45,1596.48,1015.04,1596.48,1015.04z"/>
					</g>
				</g>
			</g>
		</g>
		<g>
			<path class="st27" d="M1331.64,962.38l-9.06,6.03c-5.45,3.63,0,18.66,0,18.66l22.11-15.52
				C1338.1,961.2,1331.64,962.38,1331.64,962.38z"/>
		</g>
		<g>
			<path class="st17" d="M1488.61,1190.3c-0.02,59.29,95.83,33.79,95.83,33.79l-2.68-25.74
				C1569.42,1173.27,1488.61,1190.3,1488.61,1190.3z"/>
		</g>
		<g>
			<path class="st28" d="M1236.73,1032.94c0,0-14.47,6,0,37.4c14.47,31.4,32.16,69.85,54.33,60.33l13.49-5.8l-49.73-100.22
				L1236.73,1032.94z"/>
		</g>
		<g>
			<path class="st29" d="M1260.02,1033.65l-42.34,26.46l-62.56-18.68l-20,38.38l54.35,42.4c0,0,28.22,20.82,51.16,16.58
				s66.33-42.34,66.33-42.34S1306.95,1043.87,1260.02,1033.65z"/>
		</g>
		<g>
			<g>
				<path class="st30" d="M1260.02,1033.65l-15.41,9.63c16.89,17.99,22.09,61.97,23.62,82.5c19.57-12.53,38.71-29.33,38.71-29.33
					S1306.95,1043.87,1260.02,1033.65z"/>
			</g>
		</g>
		<g>
			<g>
				<path class="st31" d="M1517.94,1009.65c-3.34-5.33-8.22-9.52-13.91-12.2l-49.97-23.54l-64.97-11.53c0,0-35.58-3.18-48.28,0
					c-12.7,3.17-30.34,27.87-41.28,37.75c-10.93,9.88-62.8,32.81-62.8,32.81c47.28,27.17,54.33,97.72,54.33,97.72l45.16-19.41
					l27.52,128.77l205.33-23.63c0,0-15.83-71.26-27.17-134.77C1534.82,1041.94,1524.6,1020.3,1517.94,1009.65z"/>
			</g>
		</g>
		<path class="st10" d="M1299.53,1000.13c-10.93,9.88-62.8,32.81-62.8,32.81c47.28,27.17,54.33,97.72,54.33,97.72l38.63-16.59
			c28.32-28.94,11.11-151.68,11.11-151.68l-1.62,0.52C1326.65,967.6,1310.01,990.66,1299.53,1000.13z"/>
		<g>
			<path d="M1457.91,849.48c-14.96-13.64-40.69-7.76-40.69-7.76s-24.08-29.87-39.38,0c-15.3,29.87,8.01,48.69,8.01,48.69
				l59.61,41.09C1479.52,911.9,1472.87,863.13,1457.91,849.48z"/>
		</g>
		<g>
			<g>
				<path class="st32" d="M1394.79,924.51l-6.51,43.28c0,0-7.39,48.49,10.68,51.64c29.66,5.16,52.52-45.53,52.52-45.53l-2.94-53.51
					L1394.79,924.51z"/>
			</g>
		</g>
		<g>
			<g>
				<path class="st30" d="M1388.27,967.8c0,0,55.62-2.33,56.1-43.28h-49.58L1388.27,967.8z"/>
			</g>
		</g>
		<g>
			<path class="st33" d="M1330.93,1121.49l18.7,77.97l-107.27-13.44c-13.84-1.73-28.04,1.13-39.66,8.85
				c-14.01,9.31-26.86,26.75-20.67,59.11c1.92,10.03,6.62,19.33,13.27,27.08l78.83,91.96c0,0-57.15,62.09-21.87,123.48
				c35.28,61.39,203.92-11.29,245.55-16.23c41.63-4.94,64.92-7.76,64.92-7.76s6.42-28.55-5.6-51.64
				c-4.88-9.38-12.81-17.86-25.45-23.16l-38.1,2.12c0,0,0.01,0,0.01-0.01c0.98-0.71,95.24-68.81,94.54-140.41l-6.35-61.07
				c0,0-80.04,40.61-111.64-37.01l-22.42-85.38c0,0-82.54,0.96-109.35-19.15"/>
		</g>
		<g>
			<path class="st10" d="M1348.97,1125.66c0,0,2,82.35,50.23,79.34c48.23-3.02,19.45-67.04,19.45-67.04L1348.97,1125.66z"/>
		</g>
		<g class="st34">
			<path class="st35" d="M1538.57,1243.04c-35.46,6.16-90.44-24.67-90.44-24.67s-53.81,24.4-15.27,45.47s85.16,13.11,78.48,12.09
				c-6.68-1.03-68.82-27.16-25.65-17.91C1528.84,1267.28,1574.02,1236.88,1538.57,1243.04z"/>
		</g>
		<g>
			<path class="st33" d="M1491.9,991.43c-62.74,9.52-88.5,91.03-88.5,91.03l18,2.5c25.81-73.54,90.55-84.2,90.55-84.2l-13.92-8.07
				C1496.18,991.6,1494.01,991.11,1491.9,991.43z"/>
		</g>
		<g>
			<path class="st28" d="M1492.16,1158.3c-43.04-16.47-92.67-21.64-92.67-21.64c36.46,27.17,123.72,49.04,117.71,38.1
				C1511.21,1163.82,1492.16,1158.3,1492.16,1158.3z"/>
		</g>
		<g>
			<path class="st29" d="M1364.8,1205.46c0,0-49.74,15.88-88.9,31.75c-39.16,15.87-65.27,10.23-65.27,10.23
				c-9.88-8.46-30.19-12-30.19-12l1.6,18.55c-6.72,15.02-31.38,22.38-37.03,23.79c-5.65,1.41-12.7,7.05,13.4,17.64
				c26.1,10.59,65.62-6.35,65.62-6.35s120.42,0.47,155.7-3.44c35.28-3.91,60.21-32.31,60.21-32.31l52.21-95.02
				c-31.99-15.52-92.67-21.64-92.67-21.64L1364.8,1205.46z"/>
		</g>
		<g>
			<g>
				<path class="st30" d="M1397.71,1140.2c16.08,4.79,60.3,18.68,85.89,33.67l8.56-15.58c-31.99-15.52-92.67-21.64-92.67-21.64
					L1397.71,1140.2z"/>
			</g>
		</g>
		<g>
			<path class="st29" d="M1275.9,1237.21c-39.16,15.88-65.27,10.23-65.27,10.23c-9.88-8.46-30.19-12-30.19-12l1.6,18.55
				c-6.72,15.02-31.38,22.38-37.03,23.79c-5.65,1.41-12.7,7.05,13.4,17.64c26.1,10.59,65.62-6.35,65.62-6.35s29.24,0.12,63.12-0.24
				c5.82-24.01-0.09-43.69-4.74-54.22C1280.21,1235.48,1278.03,1236.34,1275.9,1237.21z"/>
		</g>
		<g>
			<g>
				<path class="st35" d="M1531.67,1397.73l-38.1,2.12l-123.23,72.67c0.9-0.22,59.07-14.61,100.9-36.43
					c33.49-17.47,71.61-15.58,85.88-15.2C1552.24,1411.51,1544.31,1403.03,1531.67,1397.73z"/>
			</g>
			<g>
				<path class="st36" d="M1531.67,1397.73l-38.1,2.12l-123.23,72.67c0.9-0.22,59.07-14.61,100.9-36.43
					c33.49-17.47,71.61-15.58,85.88-15.2C1552.24,1411.51,1544.31,1403.03,1531.67,1397.73z"/>
			</g>
		</g>
		<g class="st34">
			<path class="st35" d="M1371.91,1304.47c-16.04-9.06-20.87,0.12-20.87,0.12l-76.91,68.44c0,0,58.19-28.72,90.79-40.89
				c32.6-12.16,90.04-14.75,90.55-15.52C1455.99,1315.85,1387.95,1313.52,1371.91,1304.47z"/>
		</g>
		<g>
			<g>
				<path class="st30" d="M1218.26,1059.01l-1.15,2.19c0.21,0.12,21.51,11.51,20.51,31.65l2.47,0.12
					C1241.17,1071.27,1219.19,1059.5,1218.26,1059.01z"/>
			</g>
		</g>
		<g>
			<path class="st10" d="M1492.16,1029.88c-37.96-5.86-58.8,26.81-58.8,26.81l-33.87,79.97c58.62,4.58,118.77,31.93,118.77,31.93
				c0.51-10.84,5.88-36.45,5.88-36.45C1532.14,1097.05,1530.12,1035.74,1492.16,1029.88z"/>
		</g>
		<g>
			<path class="st33" d="M1331.64,962.38l-12.42,8.28c-4.87,3.24-7.69,8.76-7.47,14.6c0.64,16.79,3.18,52.91,13.18,83.66l13.4-12.23
				C1338.34,1056.7,1327.4,974.73,1331.64,962.38z"/>
		</g>
		<g>
			<g>
				<path class="st30" d="M1370.38,1208.37l0.5,2.42c0.08-0.02,8.84-1.63,22.25,8l1.44-2.01
					C1380.18,1206.44,1370.76,1208.28,1370.38,1208.37z"/>
			</g>
		</g>
		<g>
			<path class="st29" d="M1155.11,1041.1c-0.06-2.3-0.82-15.03-9.79-18.49c-9.59-3.69-28.86-14.09-31.36-17.43
				c-2.5-3.33-5.06,10.12,6.57,17.43l-29.8,7.97c0,0-7.5,5.21-1.88,13.34c0,0,0,15.21,4.58,20.21c4.58,5,24.8,16.05,30.42,15
				c1.99-0.37,5.1-1,8.28-1.66l51.98,40.59c10.26-10.98,25.64-33.11,19.23-62.58L1155.11,1041.1z"/>
		</g>
		<g>
			<g>
				<g>
					<path class="st21" d="M1123.25,1013.02c-28.53-12.89-69.38-21.37-112.87-26.64c-31.87-3.85-65.18-6.02-96.09-6.98
						c-5.95-0.18-11.79-0.32-17.52-0.43c-19.88-0.32-38.36-0.18-54.39,0.32c-33.66,1.03-56.35,3.6-57.63,6.27
						c-4.27,8.94,19.66,94.95,31.63,168.18c11.97,73.26,14.53,139.94,16.24,146.77c1.21,4.88,47.12-14.74,113.22-26.28
						c23.58-4.13,49.76-7.23,77.43-7.8c3.1-0.07,6.23-0.11,9.37-0.11c4.95,0,9.76,0.04,14.46,0.14c46.3,0.93,79.78,6.2,102.33,11.54
						c25.61,6.09,37.08,12.25,37.08,12.25C1189.78,1219.31,1149.47,1024.85,1123.25,1013.02z"/>
				</g>
			</g>
			<g>
				<g>
					<path class="st10" d="M1147.05,1144.83c-11.34-56.73-27.66-110.96-40.21-116.53c-81.8-36.44-282.97-30.33-286.61-22.89
						c-3.64,7.45,16.65,79.21,26.78,140.29c1.42,8.66,2.72,17.24,3.85,25.56c0.42,3.14,0.84,6.28,1.21,9.33
						c5.86,46.07,7.53,82.93,8.7,87.49c1.38,5.36,67.32-24.31,151.67-28.12c5.82-0.29,11.71-0.42,17.66-0.42
						c11.55,0,22.22,0.29,32.05,0.88c69.37,3.81,98.25,19.12,98.25,19.12c1.09-23.31-3.56-62.59-10.92-102.26
						C1148.72,1153.15,1147.88,1148.97,1147.05,1144.83z"/>
				</g>
			</g>
			<g>
				<g>
					<path class="st37" d="M1147.05,1144.83c-4.39-5.44-10.13-12.05-16.23-18.66c0-0.04,0-0.04,0-0.04
						c-13.68-14.82-29.04-29.62-35.15-31.34c-6.2-1.76-38.58,19.54-65.98,39.33c-9.54,6.86-18.45,13.51-25.44,18.99
						c-7.16,5.56-12.35,9.83-14.06,11.71c0,0,7.58,53.47,22.26,75.15c0.63-0.04,1.21-0.08,1.8-0.08c1.97-0.08,3.89-0.17,5.86-0.21
						h0.04c3.31-0.08,6.61-0.12,9.96-0.12c11.55,0,22.22,0.29,32.05,0.88c69.37,3.81,98.25,19.12,98.25,19.12
						c1.09-23.31-3.56-62.59-10.92-102.26C1148.72,1153.15,1147.88,1148.97,1147.05,1144.83z"/>
				</g>
			</g>
			<g>
				<g>
					<path class="st22" d="M1001.02,1149.38c-21.51-24.43-42.21-43.81-49.96-42.55c-6.82,1.09-23.14,12.13-41.05,25.86
						c-21.26,16.19-44.85,36.19-57.95,47.91c5.86,46.07,7.53,82.93,8.7,87.49c1.38,5.36,67.32-24.31,151.67-28.12
						c0.63-0.04,1.21-0.08,1.8-0.08c1.97-0.08,3.89-0.17,5.86-0.21c3.31-0.08,6.65-0.12,10-0.12c11.55,0,22.22,0.29,32.05,0.88
						c1.97-10.13-28.12-52.88-57.91-87.32C1003.15,1151.85,1002.07,1150.6,1001.02,1149.38z"/>
				</g>
			</g>
			<g>
				<g>
					<path class="st21" d="M951.06,1106.83c-6.82,1.09-23.14,12.13-41.05,25.86c2.72,6.61,12.26,4.18,14.31,7.36
						c2.64,4.06-16.19,30.92-7.53,37.07c8.66,6.15,28.24-35.27,36.9-32.26c8.66,3.01,19.21,38.16,24.85,32.26
						c5.65-5.9,2.55-25.31,6.9-25.98c2.89-0.42,12.3,1.09,15.56-1.76C979.51,1124.95,958.8,1105.58,951.06,1106.83z"/>
				</g>
			</g>
			<g>
				<g>
					<path class="st38" d="M1130.81,1126.12c-13.68-14.82-29.04-29.62-35.15-31.34c-6.2-1.76-38.58,19.54-65.98,39.33
						c6.78,2.89,18.54,0.42,23.43-2.05c7.53-3.77,18.16-7.91,22.26-7.91s-22.64,25.61-17.36,30.88c5.27,5.27,19.21-19.75,24.48-20.8
						c5.27-1.04-1.51,59.5,15.81,53.52s-1.51-51.72,1.51-53.52c3.01-1.8,14.31,27.57,27.12,20.42c9.41-5.27,7.41-18.08,3.89-28.5
						C1130.81,1126.12,1130.81,1126.12,1130.81,1126.12z"/>
				</g>
			</g>
			<g>
				<g>
					<circle class="st37" cx="1010.68" cy="1080.25" r="24.73"/>
				</g>
			</g>
			<g>
				<g>
					<path class="st39" d="M896.65,1034.22c0,0,0.37-7.04-5.65-11.93c-6.03-4.89-13.18,10.17-13.18,10.17
						c0-6.03-12.05-19.58-21.46-15.44c-9.41,4.15,0,17.21,0,17.21s-16.19-0.64-9.04,15.18c7.16,15.81,30.5,2.26,30.5,2.26
						s17.32,10.06,27.49,5.41c10.17-4.65,2.95-13.69,2.95-13.69s13.24-0.99,11.73-9.15
						C918.49,1026.05,896.65,1034.22,896.65,1034.22z"/>
				</g>
			</g>
			<g>
				<g>
					<path class="st39" d="M1101.91,1039.49c-13.93-7.69-16.19,2.79-16.19,2.79s-12.43-12.43-12.39,0c0,0-10.58-0.75-16.61,2.52
						c-6.03,3.28-0.75,8.77,10.17,13.97s12.78-4.82,12.78-4.82s19.61,7.53,24.12,3.77c4.52-3.77-5.27-7.16-5.27-7.16
						S1115.85,1047.19,1101.91,1039.49z"/>
				</g>
			</g>
		</g>
		<g>
			<path class="st40" d="M1413.26,958.34c-0.63,0.01-1.14-0.48-1.15-1.08c-0.01-0.61,0.52-1.11,1.14-1.12
				c0.01,0,3.59,0.44,7.65-0.86c1.43-0.45,1.89,1.12,0.46,1.57C1416.99,958.25,1413.28,958.35,1413.26,958.34z"/>
		</g>
		<g>
			<g>
				<path class="st40" d="M1443.72,957.55c0,0-0.23,4.07-0.5,9.08c-4.74,4.83-13.53,11.57-25.88,11.86
					c-19.33,0.46-32.83-16.88-32.83-16.88l57.89-4.27L1443.72,957.55z"/>
				<g>
					<g>
						<g>
							<g>
								<path class="st41" d="M1371.45,901.94c-20.62-21.83-25.27,27.12-0.78,20.2C1383.95,918.4,1371.45,901.94,1371.45,901.94z"/>
							</g>
							<g>
								<path class="st40" d="M1369.55,904.75c-14.07-14.89-17.24,18.51-0.53,13.8C1378.08,915.98,1369.55,904.75,1369.55,904.75z"
									/>
							</g>
						</g>
						<g>
							<g>
								<path class="st41" d="M1463.62,905.5c27.34-23.17,26.38,35.48-1.75,24.06C1446.64,923.37,1463.62,905.5,1463.62,905.5z"/>
							</g>
							<g>
								<path class="st40" d="M1465.5,909.08c18.66-15.81,18.01,24.22-1.18,16.43C1453.92,921.28,1465.5,909.08,1465.5,909.08z"/>
							</g>
						</g>
					</g>
					<g>
						<path class="st41" d="M1422.12,830.62c67.87,4.84,55.63,44.95,47.06,91.06c-3.13,16.87-15.38,32.81-25.99,40.58
							c-18.26,13.38-43.44,14.85-60.85-2.51c-9.15-9.12-16.87-24.11-17.05-43.83C1361.87,869.15,1354.13,827.93,1422.12,830.62z"/>
					</g>
					
						<ellipse transform="matrix(0.0554 -0.9985 0.9985 0.0554 378.2826 2254.9988)" class="st42" cx="1380.93" cy="927.57" rx="12.26" ry="12.49"/>
					
						<ellipse transform="matrix(0.0554 -0.9985 0.9985 0.0554 441.296 2329.4578)" class="st42" cx="1451.79" cy="931.5" rx="12.26" ry="12.49"/>
					<g>
						<path class="st40" d="M1475.12,887.5l-18.37-5.02l-0.72,10.51c0,0,2.89,15.7,15.73,15.13
							C1473.12,900.99,1474.35,894.07,1475.12,887.5L1475.12,887.5z M1399.88,871.17l-20.26,1.13c0,0-7.83,3.57-16.47,8.43
							c0.03,8.19,0.71,16.99,1.42,26.11C1395.21,903.64,1399.88,871.17,1399.88,871.17z"/>
					</g>
					<g>
						<path class="st43" d="M1365.36,916.94c-0.46-6.34-1.58-19.37-1.88-25.85c-2.1-43.48,8.99-67.25,58.87-64.48
							c49.89,2.77,58.27,27.62,51.38,70.6c-1.02,6.41-3.57,19.23-4.73,25.48h-0.01c0,0-3.16-8.29-0.97-21.77
							c-10.45-9.79-6.58-15.01-5.59-25.87c1.63-18.24-27.51-22.32-41.49-23.09c-13.98-0.77-43.39,0.05-43.78,18.37
							c-0.23,10.9,3.06,16.52-8.41,25.09C1369.42,909.05,1365.36,916.94,1365.36,916.94L1365.36,916.94z"/>
					</g>
					<g>
						<g>
							<g>
								<g>
									<path class="st26" d="M1451.88,899.23l-1.8-3.11c-0.94-1.61-2-1.62-3.66-1.75l-19.43-1.53c-1.3-0.09-5.72,3.57-2.01,3.65
										l23.03,0.52l3,2.6C1451.65,900.16,1452.6,900.46,1451.88,899.23z"/>
								</g>
							</g>
							<g>
								<g>
									<path class="st26" d="M1423.62,893.83c0.17-0.24,0.13-0.57-0.11-0.75c-0.23-0.17-0.56-0.12-0.73,0.11l-1.52,2.07
										c-0.17,0.24-0.14,0.57,0.1,0.75c0.23,0.17,0.57,0.13,0.74-0.11L1423.62,893.83z"/>
								</g>
							</g>
						</g>
					</g>
					<g>
						<g>
							<g>
								<g>
									<path class="st26" d="M1368.77,893.14l2.37-2.7c1.23-1.41,2.28-1.21,3.93-1.02l19.37,2.22c1.3,0.15,4.93,4.59,1.25,3.96
										l-22.69-3.89l-3.46,1.97C1368.81,894.1,1367.82,894.22,1368.77,893.14z"/>
								</g>
							</g>
							<g>
								<g>
									<path class="st26" d="M1397.54,893.25c-0.12-0.26-0.01-0.59,0.25-0.72c0.26-0.12,0.57-0.01,0.7,0.25l1.1,2.32
										c0.13,0.26,0.02,0.59-0.24,0.72c-0.26,0.13-0.58,0.01-0.7-0.25L1397.54,893.25z"/>
								</g>
							</g>
						</g>
					</g>
					<polygon class="st44" points="1447.64,860.13 1437.23,865.72 1398.66,863.58 1410.04,839.7 1450.17,844.27 					"/>
					<g>
						<path class="st45" d="M1441.56,820.43c19.51-10.82,34.1,20.15,41.42,29.4c4.45,5.65,5.38,6.35,6.45,7.74
							c1.06,1.4-5.29,2.1-6.96,1.04c5.36,8.1,12.08,25.37,0.11,26.9c5.02,20.96-15.15,39.9-24.58,8.84c0,0-14.98,9.01-24.39,6.14
							c0,0-0.48-0.12-0.32-0.55c0.48-1.36,16.66-24.89-8.07-33.03c13.2-36.79-11.26-30.37-22.98-1.39
							c-15.71,38.88-52.58,44.77-45.61,24.58C1305.2,875.61,1413.06,745.86,1441.56,820.43z"/>
						<g>
							<g>
								<g>
									<path class="st44" d="M1489.07,879.56c-0.55,3.13-2.47,5.43-6.49,5.95c5.02,20.96-20.17,42-29.59,10.94
										c0,0,14.92-16.28,11.55-27.33C1464.52,869.12,1479.94,888.73,1489.07,879.56z"/>
								</g>
							</g>
						</g>
						<g>
							<g>
								<g>
									<path class="st44" d="M1356.63,890.09c-13.89-3.91-16.14-16.23-11.5-30.66c7.88,28.38,40.04,11.84,40.04,11.84
										C1373.08,892.02,1356.63,890.09,1356.63,890.09z"/>
								</g>
							</g>
						</g>
						<g>
							<g>
								<g>
									<path class="st46" d="M1441.56,820.43c4-2.22,7.8-2.68,11.36-1.93c3.51,16.1-9.83,19.82-9.83,19.82
										C1444.59,829.96,1441.56,820.43,1441.56,820.43z"/>
								</g>
							</g>
						</g>
						<g>
							<g>
								<path class="st47" d="M1361.47,830.59c-2.59,3.23-4.97,6.56-7.11,9.92c1.14-0.55,2.75-0.35,4.64,0.82l0,0l0,0
									c0.28,0.17,0.54,0.34,0.9,0.56c1.86,1.14,4.3,2.26,7.37,2.71c3.07,0.46,6.78,0.26,11.2-1.24c3.61-1.22,7.39-3.16,10.9-5.25
									c5.43-3.26,10.2-6.89,12.62-8.82l0.43-0.34c0.55-0.43,0.89-0.72,1.06-0.89h0.01c0.06-0.02,0.12-0.1,0.12-0.21v-0.01v-0.01
									c-0.03-0.3-0.35-0.08-0.95,0.32l-0.83,0.54C1380.26,842.93,1367.95,838.61,1361.47,830.59L1361.47,830.59z M1406.84,825.31
									c-0.06,0.05-0.07,0.17-0.03,0.26c0.04,0.09,0.13,0.11,0.19,0.05h0.01l0,0v-0.01c1.17-1.02,2.45-1.82,3.76-2.42
									c1.41-0.64,2.86-1.05,4.27-1.24c0.51-0.06,1.01-0.1,1.48-0.13c2.01-0.15,3.51-0.26,4.84-2.69c1.53-2.84,4.63-2.56,4.64-2.56
									l0,0c0.07,0.01,0.14-0.06,0.15-0.15c0.01-0.1-0.04-0.21-0.12-0.23c-7.89-1.81-19.15,9.08-19.18,9.1L1406.84,825.31z"/>
							</g>
						</g>
					</g>
					<g>
						<path class="st10" d="M1371.85,895.6c-0.39-0.29-0.47-0.83-0.18-1.21c0.3-0.4,0.62-0.78,0.96-1.17
							c0.32-0.35,0.87-0.39,1.24-0.08c0.35,0.32,0.4,0.86,0.09,1.22c-0.32,0.35-0.61,0.7-0.89,1.07c-0.19,0.24-0.47,0.35-0.75,0.34
							C1372.16,895.75,1372,895.7,1371.85,895.6z M1374.16,892.85c-0.32-0.36-0.29-0.9,0.06-1.22c0.5-0.43,1.01-0.84,1.55-1.23
							c2.4-1.71,5.09-2.83,8-3.33c0.49-0.08,0.93,0.23,1.02,0.7c0.08,0.47-0.24,0.92-0.72,0.99c-2.64,0.46-5.09,1.47-7.27,3.03
							c-0.5,0.35-0.97,0.73-1.41,1.13c-0.18,0.15-0.41,0.23-0.63,0.22C1374.54,893.12,1374.32,893.03,1374.16,892.85z"/>
					</g>
				</g>
				<g>
					<g>
						<path class="st48" d="M1385.64,901.72L1385.64,901.72c-3.27-0.16-6.08,2.34-6.23,5.55l-0.14,2.82
							c-0.15,3.21,2.39,5.96,5.66,6.13l0,0c3.27,0.16,6.07-2.34,6.23-5.54l0.14-2.82C1391.45,904.64,1388.9,901.89,1385.64,901.72z"
							/>
					</g>
					<g>
						<path class="st48" d="M1431.93,904.29L1431.93,904.29c-3.28-0.16-6.07,2.34-6.23,5.55l-0.14,2.82
							c-0.16,3.21,2.39,5.96,5.66,6.13l0,0c3.27,0.16,6.07-2.34,6.23-5.54l0.14-2.82C1437.75,907.21,1435.2,904.46,1431.93,904.29z"
							/>
					</g>
					<g>
						<path class="st48" d="M1374.28,895.41c-0.46,0.48-0.41,1.24,0.08,1.68c0.49,0.44,1.26,0.41,1.7-0.07
							c0.69-0.73,1.64-1.41,2.82-1.96c1.17-0.55,2.53-0.98,4.01-1.22c1.49-0.24,2.93-0.26,4.21-0.12c1.29,0.15,2.42,0.48,3.31,0.97
							c0.58,0.32,1.32,0.1,1.64-0.47s0.1-1.3-0.48-1.61c-1.15-0.61-2.59-1.05-4.2-1.24c-1.5-0.18-3.17-0.15-4.88,0.13
							c-1.71,0.28-3.29,0.77-4.65,1.41C1376.38,893.59,1375.15,894.45,1374.28,895.41z"/>
					</g>
					<g>
						<path class="st48" d="M1441.07,898.67c0.39,0.53,0.27,1.27-0.26,1.66c-0.54,0.38-1.3,0.26-1.68-0.27
							c-0.6-0.8-1.49-1.59-2.59-2.26s-2.4-1.25-3.85-1.65c-1.46-0.41-2.88-0.59-4.17-0.58c-1.3,0.01-2.46,0.21-3.4,0.59
							c-0.62,0.25-1.33-0.03-1.58-0.64c-0.25-0.61,0.04-1.3,0.65-1.55c1.22-0.49,2.69-0.77,4.31-0.77c1.52-0.01,3.17,0.21,4.84,0.66
							c1.67,0.47,3.19,1.14,4.47,1.93C1439.18,896.63,1440.29,897.63,1441.07,898.67z"/>
					</g>
					<g>
						<path class="st48" d="M1414.55,940L1414.55,940c-3.26-0.15-6.07,2.34-6.23,5.55l-0.14,2.82c-0.15,3.21,2.39,5.97,5.65,6.13
							l0,0c3.28,0.16,6.07-2.33,6.23-5.54l0.14-2.82C1420.37,942.93,1417.82,940.16,1414.55,940z"/>
					</g>
					<g>
						<path class="st49" d="M1408.57,950.74c0.83,2.1,2.84,3.64,5.27,3.76l0,0c2.35,0.11,4.45-1.13,5.51-3.03
							c-0.83-2.1-2.85-3.64-5.27-3.76l0,0C1411.73,947.59,1409.64,948.84,1408.57,950.74z"/>
					</g>
					<g>
						<path class="st24" d="M1414.55,940L1414.55,940c-2.28-0.11-4.32,1.06-5.41,2.87c0.64,0.62,1.51,1.01,2.48,1.06l4.26,0.21
							c1.35,0.06,2.58-0.57,3.31-1.58C1418.14,941.09,1416.47,940.1,1414.55,940z"/>
					</g>
				</g>
			</g>
			<g>
				<path class="st10" d="M1360.95,905.37c-0.01-2.21,0.3-4.35,0.92-6.36l-3.95,0.01c-0.64,0-1.15-0.5-1.15-1.13
					c-0.01-0.62,0.5-1.13,1.13-1.13l4.78-0.01c3.38-7.9,11.33-13.46,20.59-13.49c11.01-0.03,20.39,7.78,22.23,18.34l7.11-0.02
					c1.73-10.57,11.03-18.44,22.04-18.48c9.26-0.03,17.26,5.49,20.72,13.36l20.43-0.06c3.46-0.04,5.38,1.06,6.39,2.04
					c1.36,1.3,2.06,3.14,2.07,5.47c0.01,0.62-0.5,1.13-1.14,1.13c-0.64,0-1.15-0.5-1.16-1.12c-0.01-1.71-0.47-3-1.37-3.86
					c-1.01-0.96-2.66-1.46-4.76-1.39l-19.61,0.06c0.63,2.01,0.97,4.15,0.98,6.36c0.06,12.16-9.95,22.07-22.33,22.1
					c-12.37,0.04-22.49-9.81-22.55-21.96c0-0.45,0.01-0.92,0.04-1.38l-6.6,0.02c0.03,0.46,0.05,0.92,0.06,1.38
					c0.06,12.16-9.96,22.07-22.33,22.1C1371.12,927.38,1361.01,917.53,1360.95,905.37z M1403.37,902.85
					c-1.27-9.92-9.9-17.36-20.08-17.33c-11.11,0.03-20.1,8.94-20.04,19.85c0.06,10.91,9.14,19.75,20.25,19.72
					c11.11-0.03,20.1-8.94,20.04-19.84c-0.01-0.76-0.06-1.55-0.16-2.34C1403.37,902.89,1403.37,902.87,1403.37,902.85z
					 M1414.76,902.83c0,0.01,0,0.03-0.01,0.03c-0.09,0.79-0.14,1.59-0.13,2.35c0.06,10.91,9.14,19.75,20.24,19.72
					c11.11-0.03,20.1-8.94,20.04-19.84c-0.06-10.91-9.14-19.76-20.24-19.73C1424.48,885.39,1415.92,892.9,1414.76,902.83z"/>
			</g>
			<g>
				<path class="st40" d="M1406.04,910.7c0,0,0.08,0.32,0.17,0.95c0.04,0.29,0.38,0.52,0.76,0.48c0.37-0.02,0.64-0.28,0.61-0.57
					c-0.1-0.68-0.22-1.12-0.22-1.12c-0.11-0.29-0.48-0.46-0.85-0.39C1406.15,910.12,1405.93,910.42,1406.04,910.7L1406.04,910.7z
					 M1400.57,925.94l-0.05,0.05c-2.76,2.49-0.61,4.96,2.2,6.54c0.66,0.37,0.17,2.97,4,3.18c1.9,0.1,3.13-1.7,3.13-2.11
					c0.03-0.41-0.39-0.76-0.93-0.79c-2.84-0.12-9.37-3.06-6.28-5.84l0.04-0.03c4.05-3.56,5.48-8.08,5.47-12.89
					c0-0.99-1.4-0.99-1.4-0.01C1406.78,918.49,1404.33,922.64,1400.57,925.94z"/>
			</g>
			<g>
				<path class="st24" d="M1405.99,929.87c1.43-2.01,1.39-3.89,1.37-4.11v-0.01l0,0c0-0.06-0.03-0.11-0.08-0.15
					c-0.47-0.32-1.01-0.21-1.14-0.18c-0.05,0.01-0.11,0.03-0.14,0.09c-0.88,1.55-2.49,2.85-2.49,2.85v0.01
					c-0.06,0.05-0.08,0.15-0.03,0.23c0.54,0.95,2.32,1.36,2.32,1.36l0,0C1405.87,929.96,1405.95,929.94,1405.99,929.87z"/>
			</g>
		</g>
		<path class="st33" d="M1338.34,1056.7l-13.4,12.23c0,0-2.71,15.36,6,52.57"/>
		<g>
			<path class="st24" d="M1388,964.64c-0.03-0.03-7.09-7.74-19.34-4.51c-6.37,1.68-13.14,24.67-9.57,34.55
				c8.46,23.35,38.43,32.89,63.12,26.75c22.13-5.53,49.38-30.41,67.8-21.73c0,0-2.86-19.2-14.21-25.54
				c-8.08-4.54-17.65-5.74-24.61-2.43c-2.58,7.74-5.8,13.54-5.8,13.54c-15.7,11.71-44.61,19.56-58.67,4.51
				C1386.71,989.78,1388,972.38,1388,964.64z"/>
		</g>
	</g>
	<g>
		<g>
			<g>
				<g>
					<g>
						<g>
							<path class="st3" d="M262,1255.58c-18.83-31.67-38.47-46.06-39.29-46.66c-0.97-0.7-2.33-0.48-3.03,0.49
								c-0.7,0.97-0.48,2.33,0.49,3.03c0.19,0.14,19.73,14.45,38.11,45.36c17.01,28.61,36.37,77.61,31.98,148.5
								c-0.07,1.2,0.84,2.22,2.03,2.3c0.05,0,0.09,0.01,0.14,0.01c1.13,0,2.1-0.88,2.17-2.04c1.97-31.77-0.57-61.92-7.54-89.6
								C281.46,1294.79,273.03,1274.14,262,1255.58z"/>
						</g>
					</g>
					<g>
						<g>
							<path class="st50" d="M269.35,1221.2c-4.11-23.91-31.19-33.07-52.48-22.15c0,0-3.09-26.61-36.7-26.22
								c-2.36,0.03-4.62,0.27-6.8,0.68c16.03,8.23,9.52,16.64,7.87,12.57c-1.21-2.98-8.34-6.93-15.98-8.32
								c-1.68-0.3-3.41,0.07-4.84,1c-6.96,4.56-12.46,11.46-16.48,19.71c-0.75,1.55,0.28,3.4,2.01,3.57
								c11.16,1.05,16.89,5.45,16.07,8.31c-0.88,3.1-10.39-2.15-20.76,1.03c-1.48,0.45-2.6,1.7-2.96,3.2
								c-2.06,8.71-2.88,18.05-2.46,27.26c0.08,1.75,1.81,2.95,3.47,2.4c11.4-3.77,20.64,2.06,10.55,4.96
								c-11.6,3.34-12.24,8.81-9.96,16.33c1.79,5.67,4.13,10.98,7.07,15.67c0,0,7.33-3.39,23-3.18l0,0h0.01
								c1.57,0.02,3.22,0.08,4.95,0.18c2.86-0.32,5.92-1.59,6.15-5.5c0.43-7.43-2.35-9.92,1.33-11c3.42-1.01,10.26,6.73,10.7,16.97
								c11.5-0.43,25.81-2.22,38.92-6.6c3.18-1.06,4.96-4.5,3.95-7.69c-0.98-3.09-3.14-6.96-7.81-10.58
								c-9.96-7.75,3.37-6.48,11.72,3.35c1.87,2.2,4.06,3.83,6.38,4.91c2.3,1.06,5.04,0.77,7.05-0.77
								c7.26-5.55,12.75-12.75,15.06-22.02c0.02-0.09,0.05-0.18,0.06-0.26c0.32-1.37,0.06-2.82-0.75-3.97
								c-4.02-5.71-11.58-10.58-23.05-12.87c0,0-3.2,0.15-2.95-2.7C241.94,1216.82,254.8,1214.14,269.35,1221.2z"/>
						</g>
						<g>
							<g>
								<path class="st3" d="M162.78,1248.48c-11.46,17.41-17.12,32.05-17.18,32.2l2.76,1.06c0.06-0.14,5.63-14.53,16.93-31.69
									c10.39-15.78,27.9-37.21,52.27-49.67l-1.35-2.64C191.24,1210.51,173.37,1232.38,162.78,1248.48z"/>
							</g>
						</g>
						<g>
							<g>
								<path class="st3" d="M167.89,1242.09c0.05,0.14,4.47,14.62,4.54,29.9l2.96-0.01c-0.07-15.74-4.48-30.16-4.67-30.76
									L167.89,1242.09z"/>
							</g>
						</g>
						<g>
							<g>
								<path class="st3" d="M191.73,1216.3c0.14,0.21,13.89,20.88,17.92,51.99l2.93-0.38c-4.13-31.8-18.26-53.05-18.4-53.26
									L191.73,1216.3z"/>
							</g>
						</g>
						<g>
							<g>
								<path class="st3" d="M210.26,1201.91l-1.48,2.56c0.24,0.14,24.71,14.55,43.38,45.83l2.54-1.52
									C235.64,1216.86,210.51,1202.06,210.26,1201.91z"/>
							</g>
						</g>
						<g>
							<g>
								<path class="st3" d="M213.79,1199.1l0.5,2.91c0.25-0.05,25.25-4.15,45.78,11.61l1.8-2.35
									C240.33,1194.74,214.86,1198.92,213.79,1199.1z"/>
							</g>
						</g>
						<g>
							<g>
								<path class="st3" d="M188.95,1175.45l-1.1,2.75c18.81,7.58,23.16,23.45,23.2,23.62l2.86-0.74
									C213.72,1200.37,209.2,1183.62,188.95,1175.45z"/>
							</g>
						</g>
						<g>
							<g>
								<path class="st3" d="M162.15,1192.79c24.24,5.37,39.6,15.99,39.76,16.1l1.7-2.42c-0.64-0.45-15.96-11.06-40.82-16.57
									L162.15,1192.79z"/>
							</g>
						</g>
						<g>
							<g>
								<path class="st3" d="M145.45,1224.99l0.36,2.93c23.01-2.8,36.49-1,36.62-0.98l0.41-2.93
									C182.28,1223.94,168.88,1222.13,145.45,1224.99z"/>
							</g>
						</g>
						<g>
							<g>
								<path class="st3" d="M145.95,1259.43l0.14,2.95c9.35-0.45,14.67-5.42,14.9-5.63l-2.03-2.15
									C158.92,1254.66,154.15,1259.03,145.95,1259.43z"/>
							</g>
						</g>
					</g>
				</g>
				<g>
					<g>
						<g>
							<g>
								<path class="st3" d="M406.98,1182.53c-0.9,0.61-22.33,15.52-44.42,57.13c-12.91,24.32-23.34,52.78-31.02,84.6
									c-9.57,39.7-14.85,84.77-15.69,133.97c-0.02,1.2,0.93,2.19,2.13,2.2c0.01,0,0.03,0,0.04,0c1.18,0,2.15-0.95,2.17-2.13
									c1.87-110.36,26.05-178.51,46.01-216.24c21.56-40.76,42.95-55.75,43.22-55.94c0.99-0.68,1.24-2.02,0.57-3.02
									C409.32,1182.11,407.97,1181.85,406.98,1182.53z"/>
							</g>
						</g>
						<g>
							<g>
								<path class="st4" d="M455.81,1183.09c-11.95-3.66-22.88,2.38-23.9-1.19c-0.94-3.29,5.65-8.35,18.5-9.56
									c1.98-0.19,3.18-2.31,2.31-4.11c-4.63-9.5-10.96-17.45-18.97-22.69c-1.64-1.07-3.64-1.5-5.56-1.15
									c-8.79,1.61-17,6.15-18.39,9.58c-1.9,4.69-9.39-4.99,9.06-14.47c-2.5-0.48-5.11-0.75-7.82-0.79
									c-38.69-0.45-42.25,30.18-42.25,30.18c-24.5-12.57-55.67-2.03-60.4,25.49c16.76-8.12,31.55-5.04,31.82-2
									c0.29,3.29-3.39,3.11-3.39,3.11c-13.2,2.64-21.9,8.24-26.53,14.82c-0.93,1.32-1.24,2.99-0.86,4.57
									c0.03,0.1,0.05,0.21,0.08,0.31c2.66,10.67,8.97,18.95,17.34,25.35c2.32,1.77,5.46,2.11,8.11,0.89
									c2.68-1.24,5.18-3.11,7.34-5.65c9.61-11.31,24.96-12.77,13.49-3.86c-5.36,4.17-7.85,8.63-8.99,12.18
									c-1.17,3.67,0.88,7.63,4.54,8.85c15.1,5.04,31.56,7.1,44.8,7.59c0.5-11.79,8.37-20.7,12.32-19.54
									c4.25,1.25,1.04,4.11,1.54,12.66c0.26,4.5,3.79,5.96,7.08,6.33c2-0.12,3.89-0.18,5.7-0.21h0.01l0,0
									c18.04-0.24,26.48,3.66,26.48,3.66c3.37-5.4,6.08-11.51,8.13-18.04c2.62-8.66,1.89-14.95-11.46-18.8
									c-11.6-3.35-0.97-10.04,12.15-5.71c1.91,0.63,3.9-0.75,3.99-2.76c0.48-10.6-0.46-21.35-2.84-31.37
									C458.8,1185.04,457.51,1183.61,455.81,1183.09z"/>
							</g>
							<g>
								<g>
									<path class="st3" d="M369.46,1167.58l-1.35,2.64c28.1,14.37,48.27,39.07,60.25,57.26c13.02,19.77,19.44,36.35,19.5,36.51
										l2.76-1.06c-0.06-0.17-6.58-16.99-19.75-37.02C418.69,1207.4,398.15,1182.26,369.46,1167.58z"/>
								</g>
							</g>
							<g>
								<g>
									<path class="st3" d="M416.77,1252.84l2.96,0.01c0.08-17.63,5.18-34.32,5.23-34.48l-2.82-0.88
										C422.08,1217.67,416.85,1234.77,416.77,1252.84z"/>
								</g>
							</g>
							<g>
								<g>
									<path class="st3" d="M373.95,1248.19l2.93,0.38c4.65-35.82,20.51-59.71,20.66-59.94l-2.45-1.65
										C394.93,1187.21,378.69,1211.64,373.95,1248.19z"/>
								</g>
							</g>
							<g>
								<g>
									<path class="st3" d="M325.44,1226.26l2.54,1.52c21.49-36.01,49.74-52.67,50.02-52.83l-1.48-2.56
										C376.22,1172.55,347.34,1189.55,325.44,1226.26z"/>
								</g>
							</g>
							<g>
								<g>
									<path class="st3" d="M317.13,1183.15l1.8,2.35c23.67-18.17,52.58-13.45,52.87-13.4l0.5-2.91
										C371.07,1168.96,341.84,1164.17,317.13,1183.15z"/>
								</g>
							</g>
							<g>
								<g>
									<path class="st3" d="M372.42,1171.28l2.86,0.74c0.05-0.19,5.07-18.56,26.84-27.33l-1.1-2.75
										C377.81,1151.29,372.63,1170.46,372.42,1171.28z"/>
								</g>
							</g>
							<g>
								<g>
									<path class="st3" d="M384.18,1177.62l1.7,2.42c0.17-0.12,17.9-12.38,45.84-18.57l-0.64-2.89
										C402.52,1164.91,384.92,1177.11,384.18,1177.62z"/>
								</g>
							</g>
							<g>
								<g>
									<path class="st3" d="M408,1197.86l0.41,2.93c0.15-0.02,15.65-2.11,42.21,1.13l0.36-2.93
										C424.03,1195.69,408.64,1197.77,408,1197.86z"/>
								</g>
							</g>
							<g>
								<g>
									<path class="st3" d="M433.26,1235.16c0.25,0.24,6.32,5.9,17.01,6.41l0.14-2.95c-9.53-0.46-15.06-5.56-15.11-5.61
										L433.26,1235.16z"/>
								</g>
							</g>
						</g>
					</g>
					<g>
						<g>
							<path class="st3" d="M282.01,1026.36c-0.2-1.18-1.32-1.97-2.51-1.77c-1.18,0.2-1.97,1.32-1.77,2.51
								c0.08,0.48,8.34,49.07,15.52,122.58c6.63,67.84,13.69,171.35,9.61,279.21c-0.05,1.2,0.89,2.2,2.09,2.25c0.03,0,0.06,0,0.08,0
								c1.16,0,2.12-0.92,2.17-2.09c4.09-108.1-2.98-211.82-9.63-279.8C290.38,1075.59,282.09,1026.84,282.01,1026.36z"/>
						</g>
					</g>
					<g>
						<g>
							<path class="st5" d="M351.93,1052.54c-0.09-1.99-1.01-3.86-2.56-5.11c-7.69-6.2-19.85-9.89-36.34-8.56
								c0,0-4.29,1.46-5.05-2.53c-0.71-3.68,15.74-12.31,38.27-8.37c-14.88-30.92-55.25-32.85-79.96-9.74
								c0,0-14.53-34.99-60.09-21.4c-3.2,0.95-6.18,2.16-8.97,3.57c24.99,4.97,19.41,18.93,15.58,14.04
								c-2.8-3.58-14.03-6.18-24.96-5.11c-2.4,0.23-4.61,1.42-6.18,3.24c-7.7,8.9-12.49,20.42-14.76,33.21
								c-0.43,2.4,1.71,4.52,4.11,4.07c15.58-2.9,25.08,0.84,25.08,5.05c0,4.56-14.96,1.11-27.83,9.46
								c-1.84,1.19-2.88,3.32-2.79,5.51c0.58,12.64,3.09,25.66,7.23,38.02c0.79,2.35,3.6,3.31,5.65,1.91
								c14.04-9.55,28.86-5.22,16.28,2.65c-14.48,9.05-13.22,16.72-7.2,26.07c4.63,7.02,9.88,13.32,15.69,18.57
								c0,0,8.66-7.46,30.05-13.25l0,0c0,0,0.01,0,0.01,0c2.14-0.58,4.4-1.14,6.8-1.68c3.76-1.55,7.43-4.46,6.23-9.86
								c-2.3-10.27-7.05-12.57-2.45-15.48c4.27-2.7,16.58,5.16,21.14,18.93c15.47-5.05,34.23-13.05,50.36-24.09
								c3.91-2.68,5-8.04,2.38-11.99c-2.53-3.82-6.98-8.24-14.72-11.36c-16.55-6.67,2.07-10.12,17.24,0
								c3.4,2.27,6.99,3.64,10.58,4.2c3.55,0.55,7.14-0.91,9.28-3.78c7.72-10.37,12.39-22.29,11.93-35.79
								C351.95,1052.79,351.94,1052.67,351.93,1052.54z"/>
						</g>
						<g>
							<g>
								<path class="st3" d="M212.49,1106.63c-8.8,28.07-10.82,50.1-10.84,50.32l2.95,0.26c0.02-0.21,2-21.93,10.71-49.69
									c8.03-25.59,23.56-61.68,51.98-88.2l-2.02-2.16C236.38,1044.12,220.62,1080.7,212.49,1106.63z"/>
							</g>
						</g>
						<g>
							<g>
								<path class="st3" d="M216.89,1095.45c0.12,0.18,11.8,18.22,17.85,39.07l2.84-0.83c-6.18-21.29-18.1-39.67-18.22-39.86
									L216.89,1095.45z"/>
							</g>
						</g>
						<g>
							<g>
								<path class="st3" d="M241.08,1048.73l-1.9,2.26c0.27,0.23,27.12,23.14,44.72,63.97l2.71-1.17
									C268.72,1072.28,241.35,1048.96,241.08,1048.73z"/>
							</g>
						</g>
						<g>
							<g>
								<path class="st3" d="M257.52,1028.16c0.39,0.1,39.45,10.26,77.06,45.63l2.02-2.15c-38.2-35.92-77.96-46.24-78.36-46.34
									L257.52,1028.16z"/>
							</g>
						</g>
						<g>
							<g>
								<path class="st3" d="M283.74,1013.67c-12.75,2.26-21.03,6.21-21.38,6.38l1.28,2.66c0.33-0.15,33.02-15.54,67.25-2.01
									l1.09-2.75C313.45,1010.63,295.52,1011.59,283.74,1013.67z"/>
							</g>
						</g>
						<g>
							<g>
								<path class="st3" d="M219.07,997.6l-0.31,2.94c28.86,3.04,41.05,23.2,41.18,23.4l2.55-1.5
									C261.98,1021.57,249.48,1000.8,219.07,997.6z"/>
							</g>
						</g>
						<g>
							<g>
								<path class="st3" d="M189.22,1027.41l0.17,2.95c35.19-2.11,60.3,6.41,60.56,6.5l0.97-2.8
									C250.66,1033.97,225.03,1025.25,189.22,1027.41z"/>
							</g>
						</g>
						<g>
							<g>
								<path class="st3" d="M179.46,1081.81l1.15,2.73c30.29-12.78,49.38-15.56,49.57-15.59l-0.41-2.93
									C229.58,1066.04,210.14,1068.85,179.46,1081.81z"/>
							</g>
						</g>
						<g>
							<g>
								<path class="st3" d="M193.47,1128.46l0.95,2.8c12.32-4.18,17.53-12.8,17.74-13.16l-2.55-1.51
									C209.57,1116.67,204.7,1124.65,193.47,1128.46z"/>
							</g>
						</g>
					</g>
				</g>
			</g>
			<g>
				<g>
					<path class="st22" d="M360.09,1363.83h-95.27c-2.24,0-4.06,1.82-4.06,4.06v117.52c0,2.24,1.82,4.06,4.06,4.06h95.27
						c2.24,0,4.06-1.82,4.06-4.06V1367.9C364.16,1365.65,362.33,1363.83,360.09,1363.83z"/>
				</g>
			</g>
		</g>
		<g class="st34">
			<path class="st37" d="M360.09,1363.83h-15.92c1.25,21.96,3.24,84.5-13.79,95.86c-12.24,8.16-44.7,11.72-69.61,12.97v12.75
				c0,2.24,1.82,4.06,4.06,4.06h95.26c2.24,0,4.06-1.82,4.06-4.06V1367.9C364.16,1365.65,362.33,1363.83,360.09,1363.83z"/>
		</g>
	</g>
	<g>
		<g>
			<g>
				<g>
					<path class="st21" d="M1732.99,649.18c-41.36-19.19-90.46-1.22-109.66,40.15c-0.4,0.86-0.76,1.74-1.13,2.61l-0.06-0.03
						c0,0-20.01,41.81,1.67,91.12c0,0,8.05,14.36-4.59,41.62l16.53,7.67l20.13,9.34l16.53,7.67c12.64-27.24,28.81-30.37,28.81-30.37
						c51.65-15.28,70.67-57.56,70.67-57.56l-0.01-0.01c0.43-0.84,0.86-1.68,1.26-2.55C1792.33,717.47,1774.36,668.38,1732.99,649.18
						z"/>
				</g>
				<g>
					<g>
						<path class="st10" d="M1698.51,762.13c-4.16,1.69-9.08,6.76-14.72,15.16l-16.88-7.83c2.77-9.73,3.47-16.76,2.08-21.03
							c-1.86-5.69-4.65-6.88-6.67-6.87c-4.19,0.01-7.3,5.06-8.81,9.78c-1.91,5.96-2.18,14.33,3.37,18.32l0.36,0.21l4.3,2
							c-6.31,19.72-18.97,45.64-25.29,57.51l3.93,2.09c0.08-0.16,8.68-16.36,16.49-34.44c3.81-8.83,6.8-16.6,8.94-23.28l15.74,7.3
							c-3.72,5.94-7.73,13.24-12.01,21.86c-8.76,17.63-15.58,34.66-15.65,34.83l4.13,1.65c4.99-12.49,16.6-38.9,27.59-56.44
							l4.7,2.13c6.63,1.66,12.85-3.95,16.16-9.26c2.62-4.2,4.47-9.84,1.78-13.05C1706.77,761.24,1704.06,759.88,1698.51,762.13z
							 M1662.85,767.58l-3.52-1.63c-3.22-2.5-3.12-8.41-1.57-13.24c1.38-4.31,3.59-6.69,4.59-6.69c0.41-0.01,1.44,0.79,2.42,3.8
							C1665.96,753.48,1665.03,759.88,1662.85,767.58z M1702.51,773.47c-2.68,4.29-7.14,8.18-11.12,7.34l-3.52-1.63
							c4.47-6.63,8.76-11.48,12.33-12.93c2.93-1.19,4.21-0.92,4.47-0.61C1705.3,766.41,1704.9,769.64,1702.51,773.47z"/>
					</g>
				</g>
				<g>
					<path class="st38" d="M1631.02,877.95l-3.53-1.4l-3.35-1.8l-0.19,0.4l-8.21-3.25c0,0-1.17,7.81,0.72,8.69
						c0.68,0.32,2.3,1.06,4.08,1.9c0,0,3.71,1.72,6.89,3.2c1.79,0.83,3.4,1.58,4.09,1.9c1.89,0.88,7.1-5.06,7.1-5.06l-7.78-4.17
						L1631.02,877.95z"/>
				</g>
				<g>
					<g>
						<path class="st37" d="M1610.03,861.53c0.06,2.26,0.01,4.91-0.41,7.25c-0.24,1.41,0.5,2.81,1.8,3.42l29.77,13.81
							c1.3,0.61,2.84,0.26,3.76-0.84c1.52-1.83,3.51-3.58,5.28-4.99c2.32-1.83,4.26-3.08,4.26-3.08l-44.85-20.81
							C1609.63,856.3,1609.94,858.58,1610.03,861.53z"/>
					</g>
					<g class="st51">
						<path class="st38" d="M1609.63,856.3c0,0,0.31,2.29,0.4,5.23c0.06,2.26,0.01,4.91-0.41,7.25c-0.24,1.41,0.5,2.81,1.8,3.42
							l11.37,5.27c1.26-5.05,2.01-11.76,2.01-11.76l-2.55-3.57L1609.63,856.3z"/>
					</g>
					<g class="st52">
						<path class="st38" d="M1610.03,861.53l40.19,18.65c2.32-1.83,4.26-3.08,4.26-3.08l-44.85-20.81
							C1609.63,856.3,1609.94,858.58,1610.03,861.53z"/>
					</g>
				</g>
				<g class="st53">
					<path class="st22" d="M1623.33,689.32c-0.4,0.86-0.76,1.74-1.13,2.61l-0.06-0.03c0,0-20.01,41.81,1.67,91.12
						c0,0,8.05,14.36-4.59,41.62l16.53,7.67l4.98,2.31c11.58-27.36,3.52-41.76,3.52-41.76c-23.47-53.37-1.81-98.63-1.81-98.63
						l0.07,0.03c0.4-0.94,0.79-1.89,1.22-2.82c12.18-26.26,35.51-43.79,61.75-49.63C1671.81,638.84,1638.38,656.89,1623.33,689.32z"
						/>
				</g>
				<g>
					<g>
						<path class="st22" d="M1663.4,867.15l-51.92-24.09c-3.73-1.73-8.2-0.1-9.93,3.64c-1.73,3.73-0.1,8.2,3.64,9.93l51.92,24.09
							c3.73,1.73,8.2,0.1,9.93-3.64C1668.76,873.34,1667.12,868.88,1663.4,867.15z"/>
					</g>
					<g class="st54">
						<path class="st37" d="M1601.55,846.69c-1.73,3.73-0.1,8.2,3.64,9.93l19.61,9.1c-1.63-2.46-2.01-5.69-0.68-8.56
							c1.33-2.86,4.04-4.67,6.97-5.01l-19.61-9.1C1607.75,841.32,1603.28,842.96,1601.55,846.69z"/>
					</g>
					<g class="st52">
						<path class="st38" d="M1663.4,867.15l-51.92-24.09c-2.66-1.24-5.71-0.75-7.85,0.99l64.09,29.74
							c-0.01-0.83-0.17-1.65-0.45-2.42C1666.6,869.56,1665.25,868.01,1663.4,867.15z"/>
					</g>
					<g>
						<path class="st22" d="M1669.12,854.82l-51.92-24.09c-2.66-1.24-5.71-0.75-7.85,0.99c-0.86,0.7-1.59,1.59-2.08,2.65
							c-0.86,1.86-0.88,3.91-0.23,5.71c0.66,1.79,1.99,3.35,3.87,4.22l51.92,24.09c3.73,1.73,8.2,0.09,9.93-3.64
							c0.49-1.06,0.7-2.19,0.68-3.3c-0.01-0.82-0.17-1.65-0.45-2.42C1672.31,857.23,1670.97,855.68,1669.12,854.82z"/>
					</g>
					<g class="st54">
						<path class="st37" d="M1607.27,834.36c-1.73,3.73-0.1,8.2,3.64,9.93l19.61,9.1c-1.64-2.46-2.01-5.69-0.68-8.56
							c1.33-2.86,4.04-4.67,6.97-5.01l-19.61-9.1C1613.47,828.99,1609.01,830.63,1607.27,834.36z"/>
					</g>
					<g class="st52">
						<path class="st38" d="M1669.12,854.82l-51.92-24.09c-2.66-1.24-5.71-0.75-7.85,0.99l64.09,29.74
							c-0.01-0.82-0.17-1.65-0.45-2.42C1672.31,857.23,1670.97,855.68,1669.12,854.82z"/>
					</g>
					<g>
						<path class="st22" d="M1674.84,842.48l-51.92-24.09c-3.73-1.73-8.2-0.1-9.93,3.64c-1.73,3.73-0.1,8.2,3.64,9.93l51.92,24.09
							c3.73,1.73,8.2,0.1,9.93-3.64C1680.21,848.68,1678.57,844.21,1674.84,842.48z"/>
					</g>
					<g class="st54">
						<path class="st37" d="M1613,822.02c-1.73,3.73-0.1,8.2,3.64,9.93l19.61,9.1c-1.64-2.46-2.01-5.69-0.68-8.56l0,0
							c1.33-2.86,4.04-4.67,6.97-5.01l-19.61-9.1C1619.2,816.66,1614.73,818.29,1613,822.02z"/>
					</g>
				</g>
				<g>
					<path class="st10" d="M1744.33,686.23c-8.99,2.11-13.73,14.71-10.58,28.15c3.15,13.44,12.99,22.62,21.98,20.52
						c8.99-2.11,13.73-14.71,10.59-28.15C1763.16,693.31,1753.31,684.12,1744.33,686.23z"/>
				</g>
			</g>
			<g>
				<g>
					<g>
						<g>
							<path class="st22" d="M1686.41,579.61c-0.42-2.53-2.82-4.24-5.34-3.82c-2.53,0.42-4.24,2.82-3.82,5.34l5.87,35.23
								c0.37,2.24,2.28,3.84,4.47,3.88c0.29,0.01,0.58-0.01,0.88-0.06c2.53-0.42,4.24-2.82,3.82-5.34L1686.41,579.61z"/>
						</g>
					</g>
					<g>
						<g>
							<path class="st22" d="M1617.84,608.83c-1.7-1.93-4.63-2.12-6.56-0.43s-2.11,4.63-0.43,6.56l23.41,26.63
								c0.9,1.02,2.13,1.55,3.38,1.58c1.12,0.03,2.26-0.35,3.17-1.15c1.93-1.7,2.11-4.63,0.43-6.56L1617.84,608.83z"/>
						</g>
					</g>
					<g>
						<g>
							<path class="st22" d="M1601.99,690.14l-28.79-12.27c-2.37-1.01-5.09,0.09-6.1,2.46c-1.01,2.36,0.09,5.09,2.46,6.1
								l28.79,12.27c0.56,0.24,1.14,0.36,1.71,0.37c1.84,0.05,3.62-1.03,4.38-2.82C1605.45,693.87,1604.35,691.15,1601.99,690.14z"
								/>
						</g>
					</g>
				</g>
				<g>
					<g>
						<g>
							<path class="st22" d="M1814.55,639.07l-30.69,18.27c-2.2,1.32-2.93,4.16-1.62,6.37c0.85,1.42,2.35,2.24,3.89,2.27
								c0.84,0.02,1.7-0.19,2.48-0.65l30.69-18.27c2.2-1.32,2.93-4.16,1.62-6.37C1819.61,638.49,1816.76,637.77,1814.55,639.07z"/>
						</g>
					</g>
					<g>
						<g>
							<path class="st22" d="M1836.52,710.3c-0.01,0-0.01,0-0.02,0l-35.45-0.68c-2.57-0.05-4.69,1.99-4.74,4.56
								c-0.05,2.56,1.98,4.67,4.54,4.73c0.01,0,0.01,0,0.02,0l35.45,0.68c2.57,0.05,4.69-1.99,4.74-4.56
								C1841.11,712.47,1839.08,710.36,1836.52,710.3z"/>
						</g>
					</g>
					<g>
						<g>
							<path class="st22" d="M1812.61,788.97l-27.95-14.07c-2.3-1.15-5.09-0.23-6.24,2.06c-1.15,2.3-0.23,5.09,2.06,6.24
								l27.95,14.07c0.64,0.32,1.31,0.48,1.98,0.5c1.74,0.04,3.43-0.9,4.26-2.56C1815.83,792.92,1814.91,790.12,1812.61,788.97z"/>
						</g>
					</g>
				</g>
				<g>
					<g>
						<path class="st22" d="M1759.6,594.4c-2.33-1.08-5.09-0.07-6.17,2.26l-14.4,31.04c-1.08,2.33-0.07,5.09,2.26,6.17
							c0.6,0.28,1.22,0.42,1.84,0.43c1.79,0.04,3.52-0.96,4.33-2.69l14.4-31.04C1762.94,598.25,1761.93,595.49,1759.6,594.4z"/>
					</g>
				</g>
			</g>
		</g>
		<g>
			<g>
				<g>
					<path class="st22" d="M1351.95,491.49c-0.55,13.72,20.06,109.68,25.23,115.48c5.16,5.8,132.95-20.69,136.05-26.5
						c4.44-8.31-17.37-102.98-22.04-113.13C1486.67,457.51,1352.22,484.78,1351.95,491.49z"/>
				</g>
			</g>
			<g>
				<g>
					<g>
						<path class="st10" d="M1382.53,502.37l3.4,23.55l1.48-0.15c0.03-5.25,0.7-9.54,2.02-12.86c1.44-3.6,3.62-6.37,6.55-8.3
							s7.6-3.69,14.03-5.29c3-0.76,5.83-1.4,8.48-1.91l12.56,64.48c0.84,4.34,1.22,7.59,1.15,9.75c-0.08,2.16-0.64,4.04-1.69,5.64
							c-0.94,1.45-2.11,2.6-3.49,3.44c-1.39,0.84-3.29,1.56-5.71,2.16l0.28,1.46l40.4-7.87l-0.28-1.46
							c-2.42,0.34-4.44,0.39-6.05,0.13c-1.61-0.26-3.11-0.88-4.53-1.88c-1.57-1.1-2.8-2.64-3.69-4.63
							c-0.89-1.99-1.75-5.14-2.59-9.44l-12.56-64.48c9.35-1.82,16.1-2.55,20.24-2.17c4.89,0.41,8.84,1.88,11.85,4.42
							c3.01,2.54,5.65,6.63,7.94,12.27l1.43-0.41l-5.68-23.11L1382.53,502.37z"/>
					</g>
				</g>
			</g>
		</g>
	</g>
</g>
</svg>
